<?xml version="1.0" standalone="no"?>
<!DOCTYPE svg PUBLIC "-//W3C//DTD SVG 1.1//EN" "http://www.w3.org/Graphics/SVG/1.1/DTD/svg11.dtd">
<svg xmlns:inkscape="http://www.inkscape.org/namespaces/inkscape" xmlns:sodipodi="http://sodipodi.sourceforge.net/DTD/sodipodi-0.dtd" xmlns="http://www.w3.org/2000/svg" xmlns:svg="http://www.w3.org/2000/svg" width="101.26006317138672" height="70.00899505615234" viewBox="0 0 101.26006 70.008995" version="1.1" id="svg1112" inkscape:version="1.1.2 (b8e25be833, 2022-02-05)" sodipodi:docname="LAIS-WHO-CC-PT.svg">
  <sodipodi:namedview id="namedview1114" pagecolor="#ffffff" bordercolor="#000000" borderopacity="0.25" inkscape:showpageshadow="2" inkscape:pageopacity="0.0" inkscape:pagecheckerboard="0" inkscape:deskcolor="#d1d1d1" inkscape:document-units="mm" showgrid="false" inkscape:zoom="1.8743546" inkscape:cx="193.93342" inkscape:cy="97.366848" inkscape:window-width="1920" inkscape:window-height="991" inkscape:window-x="-9" inkscape:window-y="-9" inkscape:window-maximized="1" inkscape:current-layer="g9660" inkscape:pageshadow="0"/>
  <defs id="defs1109">
    <clipPath clipPathUnits="userSpaceOnUse" id="clipPath25">
      <path d="M 0,595.276 H 841.89 V 0 H 0 Z" id="path23"/>
    </clipPath>
  </defs>
  <g inkscape:label="Camada 1" inkscape:groupmode="layer" id="layer1" transform="translate(-86.012554,-86.392837)">
    <g id="g9660">
      <g id="g27" transform="matrix(0.35277776,0,0,-0.35277778,122.83514,91.237146)" style="fill:#ffffff">
        <path d="m 0,0 h 4.763 c 1.124,0 2.035,-0.911 2.035,-2.035 v -50.834 c 0,-0.706 0.572,-1.278 1.278,-1.278 H 38.24 c 1.124,0 2.035,-0.911 2.035,-2.035 v -3.615 c 0,-1.124 -0.911,-2.035 -2.035,-2.035 H 0 c -1.124,0 -2.035,0.911 -2.035,2.035 V -2.035 C -2.035,-0.911 -1.124,0 0,0" style="fill:#ffffff;fill-opacity:1;fill-rule:nonzero;stroke:none" id="path29"/>
      </g>
      <g id="g31" transform="matrix(0.35277776,0,0,-0.35277778,153.30802,104.60658)" style="fill:#ffffff">
        <path d="m 0,0 -11.797,26.798 c -0.353,0.8 -1.488,0.8 -1.84,0 L -25.434,0 c -0.292,-0.664 0.194,-1.41 0.92,-1.41 H -0.92 C -0.194,-1.41 0.292,-0.664 0,0 M 2.866,-8.476 H -28.3 c -0.514,0 -0.98,-0.304 -1.187,-0.775 l -5.926,-13.468 c -0.325,-0.738 -1.056,-1.215 -1.863,-1.215 h -4.615 c -1.479,0 -2.464,1.527 -1.854,2.875 l 26.158,57.761 c 0.33,0.728 1.055,1.196 1.854,1.196 h 6.122 c 0.798,0 1.522,-0.467 1.853,-1.194 l 26.24,-57.761 c 0.612,-1.348 -0.373,-2.877 -1.853,-2.877 h -4.787 c -0.807,0 -1.538,0.477 -1.863,1.215 L 4.054,-9.251 C 3.846,-8.78 3.38,-8.476 2.866,-8.476" style="fill:#ffffff;fill-opacity:1;fill-rule:nonzero;stroke:none" id="path33"/>
      </g>
      <g id="g35" transform="matrix(0.35277776,0,0,-0.35277778,163.50283,91.237146)" style="fill:#ffffff">
        <path d="m 0,0 h 4.763 c 1.124,0 2.035,-0.911 2.035,-2.035 v -57.762 c 0,-1.124 -0.911,-2.035 -2.035,-2.035 H 0 c -1.124,0 -2.035,0.911 -2.035,2.035 V -2.035 C -2.035,-0.911 -1.124,0 0,0" style="fill:#ffffff;fill-opacity:1;fill-rule:nonzero;stroke:none" id="path37"/>
      </g>
      <g id="g39" transform="matrix(0.35277776,0,0,-0.35277778,173.30498,112.53586)" style="fill:#ffffff">
        <path d="M 0,0 C -3.638,1.213 -6.621,2.727 -8.949,4.543 -9.701,5.13 -9.94,6.161 -9.532,7.023 l 1.49,3.141 c 0.538,1.134 1.978,1.549 2.998,0.82 C -3.029,9.542 -0.641,8.325 2.12,7.331 5.799,6.006 9.584,5.344 13.47,5.344 c 5.123,0 8.951,0.868 11.483,2.606 2.531,1.736 3.799,4.048 3.799,6.934 0,2.12 -0.693,3.842 -2.076,5.167 -1.385,1.325 -3.092,2.34 -5.124,3.048 -2.031,0.706 -4.902,1.501 -8.612,2.384 -4.652,1.118 -8.406,2.238 -11.262,3.357 -2.857,1.118 -5.3,2.84 -7.332,5.167 -2.031,2.326 -3.047,5.462 -3.047,9.408 0,3.297 0.868,6.271 2.606,8.921 1.736,2.65 4.372,4.77 7.906,6.359 3.533,1.591 7.919,2.386 13.161,2.386 3.651,0 7.243,-0.472 10.776,-1.414 2.86,-0.762 5.392,-1.795 7.596,-3.098 0.876,-0.517 1.241,-1.598 0.853,-2.538 l -1.375,-3.335 c -0.461,-1.118 -1.786,-1.583 -2.849,-1.006 -2.016,1.091 -4.13,1.959 -6.345,2.602 -2.945,0.853 -5.829,1.28 -8.656,1.28 -5.006,0 -8.76,-0.913 -11.262,-2.738 -2.504,-1.825 -3.755,-4.182 -3.755,-7.066 0,-2.12 0.707,-3.842 2.12,-5.167 1.414,-1.325 3.165,-2.357 5.256,-3.092 2.09,-0.737 4.932,-1.517 8.524,-2.341 4.651,-1.119 8.392,-2.239 11.218,-3.357 2.827,-1.119 5.256,-2.826 7.288,-5.123 2.031,-2.297 3.047,-5.388 3.047,-9.275 0,-3.238 -0.883,-6.197 -2.65,-8.877 C 32.992,3.856 30.311,1.736 26.72,0.177 23.127,-1.385 18.711,-2.164 13.47,-2.164 8.818,-2.164 4.328,-1.444 0,0" style="fill:#ffffff;fill-opacity:1;fill-rule:nonzero;stroke:none" id="path41"/>
      </g>
      <g id="g43" transform="matrix(0.35277776,0,0,-0.35277778,116.32216,100.95176)" style="fill:#ffffff">
        <path d="m 0,0 c -1.863,0 -3.379,-1.516 -3.379,-3.378 0,-20.893 -16.998,-37.891 -37.89,-37.891 -15.875,0 -30.188,10.018 -35.616,24.928 -0.309,0.848 -0.929,1.526 -1.746,1.907 -0.816,0.381 -1.735,0.42 -2.585,0.112 -1.75,-0.638 -2.656,-2.58 -2.019,-4.331 6.397,-17.57 23.262,-29.373 41.966,-29.373 24.619,0 44.647,20.029 44.647,44.648 C 3.378,-1.516 1.863,0 0,0" style="fill:#ffffff;fill-opacity:1;fill-rule:nonzero;stroke:none" id="path45"/>
      </g>
      <g id="g47" transform="matrix(0.35277776,0,0,-0.35277778,116.32216,100.95176)" style="fill:#ffffff">
        <path d="m 0,0 h -21.146 l -7.632,17.059 c -0.559,1.249 -1.827,2.03 -3.205,1.996 -1.382,-0.05 -2.58,-0.922 -3.054,-2.22 l -8.748,-24.022 -6.668,16.656 c -0.503,1.26 -1.705,2.092 -3.056,2.122 l -0.081,0.001 c -1.323,0 -2.531,-0.78 -3.077,-1.985 L -61.017,0 h -21.521 c -1.863,0 -3.379,-1.516 -3.379,-3.378 0,-1.863 1.516,-3.379 3.379,-3.379 h 23.699 c 1.325,0 2.533,0.779 3.078,1.984 l 1.98,4.373 7.009,-17.505 c 0.517,-1.29 1.748,-2.123 3.136,-2.123 h 0.052 0.002 c 1.39,0.023 2.645,0.915 3.121,2.221 l 8.92,24.495 5.122,-11.447 c 0.543,-1.213 1.753,-1.998 3.084,-1.998 H 0 c 1.863,0 3.378,1.516 3.378,3.379 C 3.378,-1.516 1.863,0 0,0" style="fill:#ffffff;fill-opacity:1;fill-rule:nonzero;stroke:none" id="path49"/>
      </g>
      <g id="g51" transform="matrix(0.35277776,0,0,-0.35277778,116.5678,96.754978)" style="fill:#ffffff">
        <path d="m 0,0 c -6.396,17.569 -23.26,29.373 -41.965,29.373 -24.619,0 -44.648,-20.029 -44.648,-44.648 0,-1.863 1.516,-3.378 3.379,-3.378 1.863,0 3.379,1.515 3.379,3.378 0,20.893 16.997,37.89 37.89,37.89 15.875,0 30.187,-10.017 35.615,-24.927 0.309,-0.848 0.93,-1.526 1.748,-1.907 0.818,-0.381 1.735,-0.42 2.583,-0.112 0.848,0.308 1.525,0.929 1.907,1.747 C 0.269,-1.766 0.308,-0.849 0,0" style="fill:#ffffff;fill-opacity:1;fill-rule:nonzero;stroke:none" id="path53"/>
      </g>
      <g id="g55" transform="matrix(0.35277776,0,0,-0.35277778,186.91666,120.19572)" style="fill:#ffffff">
        <path d="m 0,0 h -184.48 c -0.557,0 -1.009,0.451 -1.009,1.009 0,0.558 0.452,1.009 1.009,1.009 H 0 C 0.557,2.018 1.009,1.567 1.009,1.009 1.009,0.451 0.557,0 0,0" style="fill:#ffffff;fill-opacity:1;fill-rule:nonzero;stroke:none" id="path57"/>
      </g>
      <g id="g223" transform="matrix(0.35277776,0,0,-0.35277778,120.48847,149.83294)" style="fill:#ffffff">
        <path d="m 0,0 -1.891,7.921 h 1.637 L 0.94,2.48 2.389,7.921 H 4.29 L 5.679,2.388 6.895,7.921 h 1.61 L 6.581,0 H 4.885 L 3.307,5.922 1.734,0 Z" style="fill:#ffffff;fill-opacity:1;fill-rule:nonzero;stroke:none" id="path225"/>
      </g>
      <g id="g227" transform="matrix(0.35277776,0,0,-0.35277778,123.77851,149.83294)" style="fill:#ffffff">
        <path d="M 0,0 V 7.921 H 1.6 V 4.803 H 4.733 V 7.921 H 6.332 V 0 H 4.733 V 3.463 H 1.6 V 0 Z" style="fill:#ffffff;fill-opacity:1;fill-rule:nonzero;stroke:none" id="path229"/>
      </g>
      <g id="g231" transform="matrix(0.35277776,0,0,-0.35277778,127.06273,148.43385)" style="fill:#ffffff">
        <path d="m 0,0 c 0,-0.897 0.207,-1.577 0.621,-2.04 0.414,-0.463 0.941,-0.694 1.578,-0.694 0.638,0 1.16,0.23 1.57,0.689 0.409,0.459 0.613,1.148 0.613,2.067 0,0.908 -0.199,1.584 -0.597,2.031 C 3.387,2.5 2.858,2.723 2.199,2.723 1.54,2.723 1.009,2.497 0.605,2.045 0.201,1.593 0,0.912 0,0 m -1.648,-0.054 c 0,0.807 0.121,1.484 0.362,2.032 0.181,0.403 0.426,0.765 0.737,1.086 0.312,0.32 0.653,0.558 1.025,0.713 C 0.969,3.986 1.538,4.09 2.183,4.09 3.35,4.09 4.284,3.729 4.984,3.004 5.685,2.28 6.035,1.273 6.035,-0.016 6.035,-1.295 5.687,-2.295 4.992,-3.018 4.297,-3.74 3.368,-4.101 2.204,-4.101 c -1.178,0 -2.114,0.36 -2.809,1.078 -0.696,0.718 -1.043,1.708 -1.043,2.969" style="fill:#ffffff;fill-opacity:1;fill-rule:nonzero;stroke:none" id="path233"/>
      </g>
      <g id="g235" transform="matrix(0.35277776,0,0,-0.35277778,132.50461,148.80558)" style="fill:#ffffff">
        <path d="M 0,0 1.551,-0.492 C 1.313,-1.356 0.918,-1.998 0.365,-2.418 -0.188,-2.837 -0.89,-3.047 -1.739,-3.047 c -1.052,0 -1.917,0.359 -2.594,1.077 -0.678,0.719 -1.016,1.702 -1.016,2.948 0,1.318 0.34,2.342 1.021,3.072 0.682,0.729 1.576,1.094 2.685,1.094 0.969,0 1.756,-0.286 2.362,-0.859 C 1.079,3.946 1.35,3.46 1.529,2.826 L -0.054,2.448 c -0.093,0.41 -0.289,0.735 -0.586,0.972 -0.297,0.238 -0.659,0.357 -1.084,0.357 -0.587,0 -1.063,-0.211 -1.428,-0.632 -0.367,-0.421 -0.549,-1.104 -0.549,-2.048 0,-1.001 0.18,-1.715 0.541,-2.14 0.359,-0.425 0.828,-0.638 1.404,-0.638 0.425,0 0.791,0.136 1.097,0.406 C -0.353,-1.005 -0.133,-0.58 0,0" style="fill:#ffffff;fill-opacity:1;fill-rule:nonzero;stroke:none" id="path237"/>
      </g>
      <g id="g239" transform="matrix(0.35277776,0,0,-0.35277778,133.95706,148.82075)" style="fill:#ffffff">
        <path d="m 0,0 c 0,-0.569 0.135,-1.005 0.405,-1.308 0.271,-0.302 0.604,-0.454 1,-0.454 0.396,0 0.729,0.152 0.997,0.454 0.268,0.303 0.403,0.743 0.403,1.319 0,0.562 -0.135,0.994 -0.403,1.297 C 2.134,1.61 1.801,1.761 1.405,1.761 1.009,1.761 0.676,1.61 0.405,1.308 0.135,1.005 0,0.569 0,0 m -1.556,0.081 c 0,0.504 0.124,0.992 0.372,1.464 0.249,0.472 0.601,0.832 1.057,1.081 0.456,0.249 0.965,0.373 1.526,0.373 0.869,0 1.58,-0.282 2.135,-0.846 0.555,-0.564 0.832,-1.276 0.832,-2.137 0,-0.868 -0.28,-1.587 -0.841,-2.159 -0.559,-0.57 -1.264,-0.856 -2.115,-0.856 -0.525,0 -1.027,0.119 -1.505,0.356 -0.476,0.239 -0.84,0.587 -1.089,1.046 -0.248,0.459 -0.372,1.019 -0.372,1.678" style="fill:#ffffff;fill-opacity:1;fill-rule:nonzero;stroke:none" id="path241"/>
      </g>
      <path d="m 135.91671,147.03855 h 0.53587 v 2.79435 h -0.53587 z" style="fill:#ffffff;fill-opacity:1;fill-rule:nonzero;stroke:none;stroke-width:0.352778" id="path243"/>
      <path d="m 137.00115,147.03855 h 0.53587 v 2.79435 h -0.53587 z" style="fill:#ffffff;fill-opacity:1;fill-rule:nonzero;stroke:none;stroke-width:0.352778" id="path245"/>
      <g id="g247" transform="matrix(0.35277776,0,0,-0.35277778,139.2029,148.86072)" style="fill:#ffffff">
        <path d="m 0,0 c -0.195,-0.065 -0.503,-0.143 -0.925,-0.232 -0.421,-0.091 -0.696,-0.179 -0.826,-0.266 -0.198,-0.14 -0.297,-0.318 -0.297,-0.534 0,-0.213 0.079,-0.397 0.237,-0.551 0.159,-0.155 0.361,-0.232 0.606,-0.232 0.273,0 0.535,0.089 0.783,0.269 0.184,0.138 0.305,0.305 0.362,0.503 0.039,0.13 0.06,0.377 0.06,0.74 z M -2.032,1.232 -3.41,1.48 c 0.155,0.555 0.422,0.966 0.8,1.232 0.379,0.267 0.94,0.4 1.685,0.4 0.678,0 1.182,-0.08 1.514,-0.24 C 0.92,2.711 1.153,2.508 1.288,2.261 1.424,2.014 1.491,1.562 1.491,0.902 L 1.475,-0.87 c 0,-0.504 0.024,-0.876 0.073,-1.116 0.049,-0.24 0.139,-0.496 0.272,-0.77 H 0.318 c -0.04,0.101 -0.088,0.25 -0.145,0.448 -0.026,0.09 -0.044,0.15 -0.055,0.179 -0.259,-0.252 -0.536,-0.441 -0.832,-0.567 -0.295,-0.126 -0.61,-0.19 -0.945,-0.19 -0.591,0 -1.057,0.16 -1.397,0.482 -0.34,0.32 -0.51,0.725 -0.51,1.216 0,0.324 0.077,0.612 0.232,0.866 0.154,0.254 0.372,0.449 0.651,0.584 0.279,0.135 0.682,0.253 1.207,0.354 0.71,0.133 1.202,0.257 1.476,0.373 L 0,1.14 C 0,1.432 -0.072,1.64 -0.217,1.764 -0.36,1.888 -0.633,1.95 -1.032,1.95 -1.303,1.95 -1.514,1.897 -1.665,1.791 -1.815,1.685 -1.938,1.498 -2.032,1.232" style="fill:#ffffff;fill-opacity:1;fill-rule:nonzero;stroke:none" id="path249"/>
      </g>
      <g id="g251" transform="matrix(0.35277776,0,0,-0.35277778,140.76592,148.777)" style="fill:#ffffff">
        <path d="m 0,0 c 0,-0.594 0.093,-1.033 0.28,-1.318 0.264,-0.404 0.613,-0.605 1.049,-0.605 0.335,0 0.62,0.143 0.857,0.429 0.235,0.287 0.353,0.737 0.353,1.354 0,0.655 -0.119,1.128 -0.356,1.418 C 1.944,1.568 1.641,1.713 1.27,1.713 0.905,1.713 0.603,1.572 0.361,1.289 0.12,1.006 0,0.577 0,0 M -1.508,-2.993 V 4.928 H 0.011 V 2.075 c 0.468,0.533 1.022,0.8 1.664,0.8 0.698,0 1.276,-0.253 1.734,-0.759 0.457,-0.507 0.687,-1.233 0.687,-2.18 0,-0.981 -0.234,-1.735 -0.7,-2.264 -0.467,-0.53 -1.034,-0.795 -1.7,-0.795 -0.328,0 -0.651,0.082 -0.969,0.246 -0.32,0.164 -0.594,0.406 -0.825,0.727 v -0.843 z" style="fill:#ffffff;fill-opacity:1;fill-rule:nonzero;stroke:none" id="path253"/>
      </g>
      <g id="g255" transform="matrix(0.35277776,0,0,-0.35277778,143.06656,148.82075)" style="fill:#ffffff">
        <path d="m 0,0 c 0,-0.569 0.135,-1.005 0.405,-1.308 0.271,-0.302 0.604,-0.454 1,-0.454 0.396,0 0.729,0.152 0.997,0.454 0.268,0.303 0.403,0.743 0.403,1.319 0,0.562 -0.135,0.994 -0.403,1.297 C 2.134,1.61 1.801,1.761 1.405,1.761 1.009,1.761 0.676,1.61 0.405,1.308 0.135,1.005 0,0.569 0,0 m -1.556,0.081 c 0,0.504 0.124,0.992 0.372,1.464 0.249,0.472 0.601,0.832 1.057,1.081 0.456,0.249 0.965,0.373 1.526,0.373 0.869,0 1.58,-0.282 2.135,-0.846 0.555,-0.564 0.832,-1.276 0.832,-2.137 0,-0.868 -0.28,-1.587 -0.841,-2.159 -0.559,-0.57 -1.264,-0.856 -2.115,-0.856 -0.525,0 -1.027,0.119 -1.505,0.356 -0.476,0.239 -0.84,0.587 -1.089,1.046 -0.248,0.459 -0.372,1.019 -0.372,1.678" style="fill:#ffffff;fill-opacity:1;fill-rule:nonzero;stroke:none" id="path257"/>
      </g>
      <g id="g259" transform="matrix(0.35277776,0,0,-0.35277778,145.53911,149.83294)" style="fill:#ffffff">
        <path d="m 0,0 h -1.519 v 5.738 h 1.411 V 4.922 c 0.241,0.386 0.458,0.64 0.651,0.762 0.192,0.123 0.411,0.184 0.656,0.184 0.346,0 0.679,-0.096 1,-0.286 L 1.729,4.258 C 1.473,4.423 1.235,4.506 1.016,4.506 0.803,4.506 0.623,4.448 0.476,4.331 0.327,4.213 0.211,4.002 0.127,3.696 0.042,3.39 0,2.749 0,1.772 Z" style="fill:#ffffff;fill-opacity:1;fill-rule:nonzero;stroke:none" id="path261"/>
      </g>
      <g id="g263" transform="matrix(0.35277776,0,0,-0.35277778,147.66234,148.86072)" style="fill:#ffffff">
        <path d="m 0,0 c -0.195,-0.065 -0.503,-0.143 -0.925,-0.232 -0.421,-0.091 -0.696,-0.179 -0.826,-0.266 -0.198,-0.14 -0.297,-0.318 -0.297,-0.534 0,-0.213 0.079,-0.397 0.237,-0.551 0.159,-0.155 0.361,-0.232 0.606,-0.232 0.273,0 0.535,0.089 0.783,0.269 0.184,0.138 0.305,0.305 0.362,0.503 0.039,0.13 0.06,0.377 0.06,0.74 z M -2.032,1.232 -3.41,1.48 c 0.155,0.555 0.422,0.966 0.8,1.232 0.379,0.267 0.94,0.4 1.685,0.4 0.678,0 1.182,-0.08 1.514,-0.24 C 0.92,2.711 1.153,2.508 1.288,2.261 1.424,2.014 1.491,1.562 1.491,0.902 L 1.475,-0.87 c 0,-0.504 0.024,-0.876 0.073,-1.116 0.049,-0.24 0.139,-0.496 0.272,-0.77 H 0.318 c -0.04,0.101 -0.088,0.25 -0.145,0.448 -0.026,0.09 -0.044,0.15 -0.055,0.179 -0.259,-0.252 -0.536,-0.441 -0.832,-0.567 -0.295,-0.126 -0.61,-0.19 -0.945,-0.19 -0.591,0 -1.057,0.16 -1.397,0.482 -0.34,0.32 -0.51,0.725 -0.51,1.216 0,0.324 0.077,0.612 0.232,0.866 0.154,0.254 0.372,0.449 0.651,0.584 0.279,0.135 0.682,0.253 1.207,0.354 0.71,0.133 1.202,0.257 1.476,0.373 L 0,1.14 C 0,1.432 -0.072,1.64 -0.217,1.764 -0.36,1.888 -0.633,1.95 -1.032,1.95 -1.303,1.95 -1.514,1.897 -1.665,1.791 -1.815,1.685 -1.938,1.498 -2.032,1.232" style="fill:#ffffff;fill-opacity:1;fill-rule:nonzero;stroke:none" id="path265"/>
      </g>
      <g id="g267" transform="matrix(0.35277776,0,0,-0.35277778,149.64463,147.80859)" style="fill:#ffffff">
        <path d="m 0,0 v -1.21 h -1.037 v -2.313 c 0,-0.468 0.01,-0.741 0.029,-0.819 0.02,-0.077 0.065,-0.141 0.135,-0.191 0.07,-0.051 0.156,-0.076 0.257,-0.076 0.14,0 0.344,0.048 0.61,0.146 l 0.13,-1.178 c -0.353,-0.151 -0.753,-0.227 -1.199,-0.227 -0.275,0 -0.521,0.046 -0.74,0.138 -0.22,0.091 -0.381,0.21 -0.484,0.356 -0.103,0.146 -0.174,0.344 -0.214,0.592 -0.032,0.177 -0.049,0.533 -0.049,1.07 V -1.21 H -3.258 V 0 h 0.696 v 1.14 l 1.525,0.886 V 0 Z" style="fill:#ffffff;fill-opacity:1;fill-rule:nonzero;stroke:none" id="path269"/>
      </g>
      <path d="m 150.01653,147.80866 h 0.53587 v 2.02424 h -0.53587 z m 0,-0.77011 h 0.53587 v 0.49565 h -0.53587 z" style="fill:#ffffff;fill-opacity:1;fill-rule:nonzero;stroke:none;stroke-width:0.352778" id="path271"/>
      <g id="g273" transform="matrix(0.35277776,0,0,-0.35277778,152.94229,149.83294)" style="fill:#ffffff">
        <path d="m 0,0 h -1.519 v 2.929 c 0,0.619 -0.032,1.02 -0.096,1.202 -0.066,0.181 -0.171,0.323 -0.317,0.424 -0.145,0.101 -0.321,0.151 -0.526,0.151 -0.264,0 -0.499,-0.072 -0.708,-0.216 C -3.375,4.346 -3.519,4.155 -3.596,3.917 -3.673,3.68 -3.712,3.24 -3.712,2.599 V 0 H -5.23 v 5.738 h 1.41 V 4.896 c 0.501,0.647 1.132,0.972 1.891,0.972 0.335,0 0.641,-0.06 0.918,-0.181 0.278,-0.121 0.488,-0.275 0.63,-0.462 0.143,-0.187 0.241,-0.4 0.297,-0.638 C -0.028,4.35 0,4.009 0,3.566 Z" style="fill:#ffffff;fill-opacity:1;fill-rule:nonzero;stroke:none" id="path275"/>
      </g>
      <g id="g277" transform="matrix(0.35277776,0,0,-0.35277778,153.91448,148.77891)" style="fill:#ffffff">
        <path d="m 0,0 c 0,-0.608 0.118,-1.054 0.354,-1.337 0.236,-0.283 0.527,-0.424 0.873,-0.424 0.371,0 0.684,0.144 0.94,0.434 0.256,0.29 0.384,0.72 0.384,1.289 0,0.595 -0.123,1.036 -0.367,1.324 C 1.938,1.574 1.628,1.718 1.254,1.718 0.89,1.718 0.59,1.577 0.354,1.294 0.118,1.011 0,0.58 0,0 m -1.356,-3.366 1.735,-0.211 c 0.028,-0.202 0.095,-0.34 0.199,-0.416 0.145,-0.108 0.371,-0.162 0.681,-0.162 0.396,0 0.693,0.06 0.891,0.178 0.134,0.08 0.235,0.208 0.303,0.384 0.047,0.126 0.07,0.358 0.07,0.697 v 0.838 c -0.454,-0.62 -1.026,-0.93 -1.717,-0.93 -0.772,0 -1.382,0.326 -1.832,0.978 -0.354,0.515 -0.53,1.157 -0.53,1.924 0,0.961 0.232,1.696 0.695,2.204 0.463,0.508 1.038,0.762 1.725,0.762 0.71,0 1.295,-0.312 1.757,-0.935 V 2.75 H 4.042 V -2.399 C 4.042,-3.076 3.986,-3.583 3.874,-3.917 3.763,-4.252 3.605,-4.515 3.404,-4.706 3.202,-4.897 2.934,-5.046 2.597,-5.155 2.26,-5.262 1.834,-5.317 1.318,-5.317 c -0.972,0 -1.662,0.167 -2.069,0.5 -0.407,0.333 -0.61,0.756 -0.61,1.268 0,0.049 0.002,0.111 0.005,0.183" style="fill:#ffffff;fill-opacity:1;fill-rule:nonzero;stroke:none" id="path279"/>
      </g>
      <g id="g281" transform="matrix(0.35277776,0,0,-0.35277778,158.74623,148.80558)" style="fill:#ffffff">
        <path d="M 0,0 1.551,-0.492 C 1.313,-1.356 0.918,-1.998 0.365,-2.418 -0.188,-2.837 -0.89,-3.047 -1.739,-3.047 c -1.052,0 -1.917,0.359 -2.594,1.077 -0.678,0.719 -1.016,1.702 -1.016,2.948 0,1.318 0.34,2.342 1.021,3.072 0.682,0.729 1.576,1.094 2.685,1.094 0.969,0 1.756,-0.286 2.362,-0.859 C 1.079,3.946 1.35,3.46 1.529,2.826 L -0.054,2.448 c -0.093,0.41 -0.289,0.735 -0.586,0.972 -0.297,0.238 -0.659,0.357 -1.084,0.357 -0.587,0 -1.063,-0.211 -1.428,-0.632 -0.367,-0.421 -0.549,-1.104 -0.549,-2.048 0,-1.001 0.18,-1.715 0.541,-2.14 0.359,-0.425 0.828,-0.638 1.404,-0.638 0.425,0 0.791,0.136 1.097,0.406 C -0.353,-1.005 -0.133,-0.58 0,0" style="fill:#ffffff;fill-opacity:1;fill-rule:nonzero;stroke:none" id="path283"/>
      </g>
      <g id="g285" transform="matrix(0.35277776,0,0,-0.35277778,160.97659,148.64728)" style="fill:#ffffff">
        <path d="M 0,0 C -0.011,0.439 -0.125,0.773 -0.341,1.002 -0.557,1.231 -0.82,1.345 -1.13,1.345 -1.461,1.345 -1.734,1.225 -1.951,0.983 -2.167,0.742 -2.273,0.414 -2.27,0 Z M -0.087,-1.535 1.426,-1.789 C 1.231,-2.343 0.925,-2.766 0.505,-3.055 c -0.42,-0.29 -0.944,-0.436 -1.575,-0.436 -0.998,0 -1.737,0.326 -2.215,0.979 -0.379,0.521 -0.568,1.18 -0.568,1.977 0,0.951 0.249,1.696 0.746,2.234 0.497,0.539 1.126,0.808 1.885,0.808 0.854,0 1.528,-0.282 2.021,-0.845 0.494,-0.564 0.729,-1.428 0.708,-2.591 h -3.804 c 0.011,-0.45 0.134,-0.801 0.367,-1.051 0.235,-0.251 0.527,-0.376 0.876,-0.376 0.238,0 0.438,0.065 0.6,0.194 0.162,0.13 0.284,0.339 0.367,0.627" style="fill:#ffffff;fill-opacity:1;fill-rule:nonzero;stroke:none" id="path287"/>
      </g>
      <g id="g289" transform="matrix(0.35277776,0,0,-0.35277778,163.78604,149.83294)" style="fill:#ffffff">
        <path d="m 0,0 h -1.519 v 2.929 c 0,0.619 -0.032,1.02 -0.096,1.202 -0.066,0.181 -0.171,0.323 -0.317,0.424 -0.145,0.101 -0.321,0.151 -0.526,0.151 -0.264,0 -0.499,-0.072 -0.708,-0.216 C -3.375,4.346 -3.519,4.155 -3.596,3.917 -3.673,3.68 -3.712,3.24 -3.712,2.599 V 0 H -5.23 v 5.738 h 1.41 V 4.896 c 0.501,0.647 1.132,0.972 1.891,0.972 0.335,0 0.641,-0.06 0.918,-0.181 0.278,-0.121 0.488,-0.275 0.63,-0.462 0.143,-0.187 0.241,-0.4 0.297,-0.638 C -0.028,4.35 0,4.009 0,3.566 Z" style="fill:#ffffff;fill-opacity:1;fill-rule:nonzero;stroke:none" id="path291"/>
      </g>
      <g id="g293" transform="matrix(0.35277776,0,0,-0.35277778,165.2578,147.80859)" style="fill:#ffffff">
        <path d="m 0,0 v -1.21 h -1.037 v -2.313 c 0,-0.468 0.01,-0.741 0.029,-0.819 0.02,-0.077 0.065,-0.141 0.135,-0.191 0.07,-0.051 0.156,-0.076 0.257,-0.076 0.14,0 0.344,0.048 0.61,0.146 l 0.13,-1.178 c -0.353,-0.151 -0.753,-0.227 -1.199,-0.227 -0.275,0 -0.521,0.046 -0.74,0.138 -0.22,0.091 -0.381,0.21 -0.484,0.356 -0.103,0.146 -0.174,0.344 -0.214,0.592 -0.032,0.177 -0.049,0.533 -0.049,1.07 V -1.21 H -3.258 V 0 h 0.696 v 1.14 l 1.525,0.886 V 0 Z" style="fill:#ffffff;fill-opacity:1;fill-rule:nonzero;stroke:none" id="path295"/>
      </g>
      <g id="g297" transform="matrix(0.35277776,0,0,-0.35277778,166.14218,149.83294)" style="fill:#ffffff">
        <path d="m 0,0 h -1.519 v 5.738 h 1.411 V 4.922 c 0.241,0.386 0.458,0.64 0.651,0.762 0.192,0.123 0.411,0.184 0.656,0.184 0.346,0 0.679,-0.096 1,-0.286 L 1.729,4.258 C 1.473,4.423 1.235,4.506 1.016,4.506 0.803,4.506 0.623,4.448 0.476,4.331 0.327,4.213 0.211,4.002 0.127,3.696 0.042,3.39 0,2.749 0,1.772 Z" style="fill:#ffffff;fill-opacity:1;fill-rule:nonzero;stroke:none" id="path299"/>
      </g>
      <g id="g301" transform="matrix(0.35277776,0,0,-0.35277778,168.35152,148.64728)" style="fill:#ffffff">
        <path d="M 0,0 C -0.011,0.439 -0.125,0.773 -0.341,1.002 -0.557,1.231 -0.82,1.345 -1.13,1.345 -1.461,1.345 -1.734,1.225 -1.951,0.983 -2.167,0.742 -2.273,0.414 -2.27,0 Z M -0.087,-1.535 1.426,-1.789 C 1.231,-2.343 0.925,-2.766 0.505,-3.055 c -0.42,-0.29 -0.944,-0.436 -1.575,-0.436 -0.998,0 -1.737,0.326 -2.215,0.979 -0.379,0.521 -0.568,1.18 -0.568,1.977 0,0.951 0.249,1.696 0.746,2.234 0.497,0.539 1.126,0.808 1.885,0.808 0.854,0 1.528,-0.282 2.021,-0.845 0.494,-0.564 0.729,-1.428 0.708,-2.591 h -3.804 c 0.011,-0.45 0.134,-0.801 0.367,-1.051 0.235,-0.251 0.527,-0.376 0.876,-0.376 0.238,0 0.438,0.065 0.6,0.194 0.162,0.13 0.284,0.339 0.367,0.627" style="fill:#ffffff;fill-opacity:1;fill-rule:nonzero;stroke:none" id="path303"/>
      </g>
      <g id="g305" transform="matrix(0.35277776,0,0,-0.35277778,103.849,153.50539)" style="fill:#ffffff">
        <path d="m 0,0 c 0,-0.569 0.135,-1.005 0.405,-1.308 0.271,-0.302 0.604,-0.454 1,-0.454 0.396,0 0.729,0.152 0.997,0.454 0.268,0.303 0.403,0.743 0.403,1.319 0,0.561 -0.135,0.994 -0.403,1.297 C 2.134,1.61 1.801,1.762 1.405,1.762 1.009,1.762 0.676,1.61 0.405,1.308 0.135,1.005 0,0.569 0,0 m -1.556,0.081 c 0,0.504 0.124,0.992 0.372,1.464 0.249,0.473 0.601,0.832 1.057,1.081 0.456,0.248 0.965,0.373 1.526,0.373 0.869,0 1.58,-0.282 2.135,-0.846 0.555,-0.564 0.832,-1.276 0.832,-2.136 0,-0.869 -0.28,-1.588 -0.841,-2.16 -0.559,-0.57 -1.264,-0.856 -2.115,-0.856 -0.525,0 -1.027,0.119 -1.505,0.356 -0.476,0.239 -0.84,0.587 -1.089,1.046 -0.248,0.459 -0.372,1.019 -0.372,1.678" style="fill:#ffffff;fill-opacity:1;fill-rule:nonzero;stroke:none" id="path307"/>
      </g>
      <g id="g309" transform="matrix(0.35277776,0,0,-0.35277778,107.64997,154.51758)" style="fill:#ffffff">
        <path d="m 0,0 h -1.519 v 2.929 c 0,0.619 -0.032,1.02 -0.096,1.202 -0.066,0.181 -0.171,0.323 -0.317,0.424 -0.145,0.1 -0.321,0.151 -0.526,0.151 -0.264,0 -0.499,-0.072 -0.708,-0.216 C -3.375,4.346 -3.519,4.155 -3.596,3.917 -3.673,3.68 -3.712,3.24 -3.712,2.599 V 0 H -5.23 v 5.738 h 1.41 V 4.896 c 0.501,0.648 1.132,0.972 1.891,0.972 0.335,0 0.641,-0.06 0.918,-0.181 0.278,-0.121 0.488,-0.275 0.63,-0.462 0.143,-0.188 0.241,-0.4 0.297,-0.638 C -0.028,4.35 0,4.009 0,3.566 Z" style="fill:#ffffff;fill-opacity:1;fill-rule:nonzero;stroke:none" id="path311"/>
      </g>
      <path d="m 109.26435,151.72308 h 0.56409 v 2.79436 h -0.56409 z" style="fill:#ffffff;fill-opacity:1;fill-rule:nonzero;stroke:none;stroke-width:0.352778" id="path313"/>
      <g id="g315" transform="matrix(0.35277776,0,0,-0.35277778,112.20369,154.51758)" style="fill:#ffffff">
        <path d="m 0,0 h -1.519 v 2.929 c 0,0.619 -0.032,1.02 -0.096,1.202 -0.066,0.181 -0.171,0.323 -0.317,0.424 -0.145,0.1 -0.321,0.151 -0.526,0.151 -0.264,0 -0.499,-0.072 -0.708,-0.216 C -3.375,4.346 -3.519,4.155 -3.596,3.917 -3.673,3.68 -3.712,3.24 -3.712,2.599 V 0 H -5.23 v 5.738 h 1.41 V 4.896 c 0.501,0.648 1.132,0.972 1.891,0.972 0.335,0 0.641,-0.06 0.918,-0.181 0.278,-0.121 0.488,-0.275 0.63,-0.462 0.143,-0.188 0.241,-0.4 0.297,-0.638 C -0.028,4.35 0,4.009 0,3.566 Z" style="fill:#ffffff;fill-opacity:1;fill-rule:nonzero;stroke:none" id="path317"/>
      </g>
      <g id="g319" transform="matrix(0.35277776,0,0,-0.35277778,114.58805,154.51758)" style="fill:#ffffff">
        <path d="m 0,0 h -1.519 v 2.929 c 0,0.619 -0.032,1.02 -0.096,1.202 -0.066,0.181 -0.171,0.323 -0.317,0.424 -0.145,0.1 -0.321,0.151 -0.526,0.151 -0.264,0 -0.499,-0.072 -0.708,-0.216 C -3.375,4.346 -3.519,4.155 -3.596,3.917 -3.673,3.68 -3.712,3.24 -3.712,2.599 V 0 H -5.23 v 5.738 h 1.41 V 4.896 c 0.501,0.648 1.132,0.972 1.891,0.972 0.335,0 0.641,-0.06 0.918,-0.181 0.278,-0.121 0.488,-0.275 0.63,-0.462 0.143,-0.188 0.241,-0.4 0.297,-0.638 C -0.028,4.35 0,4.009 0,3.566 Z" style="fill:#ffffff;fill-opacity:1;fill-rule:nonzero;stroke:none" id="path321"/>
      </g>
      <g id="g323" transform="matrix(0.35277776,0,0,-0.35277778,115.55646,153.50539)" style="fill:#ffffff">
        <path d="m 0,0 c 0,-0.569 0.135,-1.005 0.405,-1.308 0.271,-0.302 0.604,-0.454 1,-0.454 0.396,0 0.729,0.152 0.997,0.454 0.268,0.303 0.403,0.743 0.403,1.319 0,0.561 -0.135,0.994 -0.403,1.297 C 2.134,1.61 1.801,1.762 1.405,1.762 1.009,1.762 0.676,1.61 0.405,1.308 0.135,1.005 0,0.569 0,0 m -1.556,0.081 c 0,0.504 0.124,0.992 0.372,1.464 0.249,0.473 0.601,0.832 1.057,1.081 0.456,0.248 0.965,0.373 1.526,0.373 0.869,0 1.58,-0.282 2.135,-0.846 0.555,-0.564 0.832,-1.276 0.832,-2.136 0,-0.869 -0.28,-1.588 -0.841,-2.16 -0.559,-0.57 -1.264,-0.856 -2.115,-0.856 -0.525,0 -1.027,0.119 -1.505,0.356 -0.476,0.239 -0.84,0.587 -1.089,1.046 -0.248,0.459 -0.372,1.019 -0.372,1.678" style="fill:#ffffff;fill-opacity:1;fill-rule:nonzero;stroke:none" id="path325"/>
      </g>
      <g id="g327" transform="matrix(0.35277776,0,0,-0.35277778,118.07275,154.51758)" style="fill:#ffffff">
        <path d="m 0,0 -2.313,5.738 h 1.594 L 0.362,2.81 0.676,1.832 C 0.758,2.08 0.811,2.244 0.832,2.323 0.883,2.485 0.937,2.647 0.994,2.81 L 2.086,5.738 H 3.647 L 1.367,0 Z" style="fill:#ffffff;fill-opacity:1;fill-rule:nonzero;stroke:none" id="path329"/>
      </g>
      <g id="g331" transform="matrix(0.35277776,0,0,-0.35277778,120.80403,153.54536)" style="fill:#ffffff">
        <path d="m 0,0 c -0.195,-0.065 -0.503,-0.143 -0.925,-0.232 -0.421,-0.09 -0.696,-0.179 -0.826,-0.265 -0.198,-0.141 -0.297,-0.319 -0.297,-0.535 0,-0.213 0.079,-0.397 0.237,-0.551 0.159,-0.155 0.361,-0.232 0.606,-0.232 0.273,0 0.535,0.089 0.783,0.269 0.184,0.138 0.305,0.305 0.362,0.503 0.039,0.13 0.06,0.376 0.06,0.74 z M -2.032,1.231 -3.41,1.48 c 0.155,0.555 0.422,0.965 0.8,1.232 0.379,0.267 0.94,0.4 1.685,0.4 0.678,0 1.182,-0.08 1.514,-0.241 C 0.92,2.711 1.153,2.508 1.288,2.261 1.424,2.015 1.491,1.562 1.491,0.902 L 1.475,-0.87 c 0,-0.504 0.024,-0.876 0.073,-1.116 0.049,-0.24 0.139,-0.496 0.272,-0.77 H 0.318 c -0.04,0.101 -0.088,0.25 -0.145,0.448 -0.026,0.09 -0.044,0.15 -0.055,0.179 -0.259,-0.252 -0.536,-0.441 -0.832,-0.567 -0.295,-0.126 -0.61,-0.19 -0.945,-0.19 -0.591,0 -1.057,0.16 -1.397,0.482 -0.34,0.32 -0.51,0.725 -0.51,1.216 0,0.324 0.077,0.613 0.232,0.867 0.154,0.254 0.372,0.448 0.651,0.583 0.279,0.134 0.682,0.253 1.207,0.354 0.71,0.133 1.202,0.257 1.476,0.372 L 0,1.14 C 0,1.432 -0.072,1.64 -0.217,1.764 -0.36,1.889 -0.633,1.95 -1.032,1.95 -1.303,1.95 -1.514,1.897 -1.665,1.791 -1.815,1.685 -1.938,1.498 -2.032,1.231" style="fill:#ffffff;fill-opacity:1;fill-rule:nonzero;stroke:none" id="path333"/>
      </g>
      <g id="g335" transform="matrix(0.35277776,0,0,-0.35277778,122.78632,152.49323)" style="fill:#ffffff">
        <path d="m 0,0 v -1.21 h -1.037 v -2.313 c 0,-0.468 0.01,-0.741 0.029,-0.819 0.02,-0.077 0.065,-0.141 0.135,-0.191 0.07,-0.051 0.156,-0.076 0.257,-0.076 0.14,0 0.344,0.048 0.61,0.146 l 0.13,-1.178 c -0.353,-0.151 -0.753,-0.227 -1.199,-0.227 -0.275,0 -0.521,0.046 -0.74,0.138 -0.22,0.091 -0.381,0.21 -0.484,0.356 -0.103,0.146 -0.174,0.344 -0.214,0.592 -0.032,0.177 -0.049,0.533 -0.049,1.07 V -1.21 H -3.258 V 0 h 0.696 v 1.14 l 1.525,0.886 V 0 Z" style="fill:#ffffff;fill-opacity:1;fill-rule:nonzero;stroke:none" id="path337"/>
      </g>
      <path d="m 123.15815,152.4932 h 0.53587 v 2.02424 h -0.53587 z m 0,-0.77012 h 0.53587 v 0.4953 h -0.53587 z" style="fill:#ffffff;fill-opacity:1;fill-rule:nonzero;stroke:none;stroke-width:0.352778" id="path339"/>
      <g id="g341" transform="matrix(0.35277776,0,0,-0.35277778,124.66768,153.50539)" style="fill:#ffffff">
        <path d="m 0,0 c 0,-0.569 0.135,-1.005 0.405,-1.308 0.271,-0.302 0.604,-0.454 1,-0.454 0.396,0 0.729,0.152 0.997,0.454 0.268,0.303 0.403,0.743 0.403,1.319 0,0.561 -0.135,0.994 -0.403,1.297 C 2.134,1.61 1.801,1.762 1.405,1.762 1.009,1.762 0.676,1.61 0.405,1.308 0.135,1.005 0,0.569 0,0 m -1.556,0.081 c 0,0.504 0.124,0.992 0.372,1.464 0.249,0.473 0.601,0.832 1.057,1.081 0.456,0.248 0.965,0.373 1.526,0.373 0.869,0 1.58,-0.282 2.135,-0.846 0.555,-0.564 0.832,-1.276 0.832,-2.136 0,-0.869 -0.28,-1.588 -0.841,-2.16 -0.559,-0.57 -1.264,-0.856 -2.115,-0.856 -0.525,0 -1.027,0.119 -1.505,0.356 -0.476,0.239 -0.84,0.587 -1.089,1.046 -0.248,0.459 -0.372,1.019 -0.372,1.678" style="fill:#ffffff;fill-opacity:1;fill-rule:nonzero;stroke:none" id="path343"/>
      </g>
      <g id="g345" transform="matrix(0.35277776,0,0,-0.35277778,128.46865,154.51758)" style="fill:#ffffff">
        <path d="m 0,0 h -1.519 v 2.929 c 0,0.619 -0.032,1.02 -0.096,1.202 -0.066,0.181 -0.171,0.323 -0.317,0.424 -0.145,0.1 -0.321,0.151 -0.526,0.151 -0.264,0 -0.499,-0.072 -0.708,-0.216 C -3.375,4.346 -3.519,4.155 -3.596,3.917 -3.673,3.68 -3.712,3.24 -3.712,2.599 V 0 H -5.23 v 5.738 h 1.41 V 4.896 c 0.501,0.648 1.132,0.972 1.891,0.972 0.335,0 0.641,-0.06 0.918,-0.181 0.278,-0.121 0.488,-0.275 0.63,-0.462 0.143,-0.188 0.241,-0.4 0.297,-0.638 C -0.028,4.35 0,4.009 0,3.566 Z" style="fill:#ffffff;fill-opacity:1;fill-rule:nonzero;stroke:none" id="path347"/>
      </g>
      <path d="m 130.09658,152.4932 h 0.53587 v 2.02424 h -0.53587 z m 0,-0.77012 h 0.53587 v 0.4953 h -0.53587 z" style="fill:#ffffff;fill-opacity:1;fill-rule:nonzero;stroke:none;stroke-width:0.352778" id="path349"/>
      <g id="g351" transform="matrix(0.35277776,0,0,-0.35277778,133.02238,154.51758)" style="fill:#ffffff">
        <path d="m 0,0 h -1.519 v 2.929 c 0,0.619 -0.032,1.02 -0.096,1.202 -0.066,0.181 -0.171,0.323 -0.317,0.424 -0.145,0.1 -0.321,0.151 -0.526,0.151 -0.264,0 -0.499,-0.072 -0.708,-0.216 C -3.375,4.346 -3.519,4.155 -3.596,3.917 -3.673,3.68 -3.712,3.24 -3.712,2.599 V 0 H -5.23 v 5.738 h 1.41 V 4.896 c 0.501,0.648 1.132,0.972 1.891,0.972 0.335,0 0.641,-0.06 0.918,-0.181 0.278,-0.121 0.488,-0.275 0.63,-0.462 0.143,-0.188 0.241,-0.4 0.297,-0.638 C -0.028,4.35 0,4.009 0,3.566 Z" style="fill:#ffffff;fill-opacity:1;fill-rule:nonzero;stroke:none" id="path353"/>
      </g>
      <g id="g355" transform="matrix(0.35277776,0,0,-0.35277778,135.36712,154.51758)" style="fill:#ffffff">
        <path d="m 0,0 -2.832,7.921 h 1.735 L 0.907,2.059 2.848,7.921 H 4.544 L 1.707,0 Z" style="fill:#ffffff;fill-opacity:1;fill-rule:nonzero;stroke:none" id="path357"/>
      </g>
      <path d="m 137.18353,152.4932 h 0.53587 v 2.02424 h -0.53587 z m 0,-0.77012 h 0.53587 v 0.4953 h -0.53587 z" style="fill:#ffffff;fill-opacity:1;fill-rule:nonzero;stroke:none;stroke-width:0.352778" id="path359"/>
      <g id="g361" transform="matrix(0.35277776,0,0,-0.35277778,138.78087,154.51758)" style="fill:#ffffff">
        <path d="m 0,0 h -1.519 v 5.738 h 1.411 V 4.922 c 0.241,0.386 0.458,0.64 0.651,0.763 0.192,0.122 0.411,0.183 0.656,0.183 0.346,0 0.679,-0.096 1,-0.287 L 1.729,4.258 C 1.473,4.424 1.235,4.506 1.016,4.506 0.803,4.506 0.623,4.447 0.476,4.331 0.327,4.214 0.211,4.002 0.127,3.695 0.042,3.39 0,2.748 0,1.772 Z" style="fill:#ffffff;fill-opacity:1;fill-rule:nonzero;stroke:none" id="path363"/>
      </g>
      <g id="g365" transform="matrix(0.35277776,0,0,-0.35277778,140.71565,152.49323)" style="fill:#ffffff">
        <path d="m 0,0 v -1.21 h -1.037 v -2.313 c 0,-0.468 0.01,-0.741 0.029,-0.819 0.02,-0.077 0.065,-0.141 0.135,-0.191 0.07,-0.051 0.156,-0.076 0.257,-0.076 0.14,0 0.344,0.048 0.61,0.146 l 0.13,-1.178 c -0.353,-0.151 -0.753,-0.227 -1.199,-0.227 -0.275,0 -0.521,0.046 -0.74,0.138 -0.22,0.091 -0.381,0.21 -0.484,0.356 -0.103,0.146 -0.174,0.344 -0.214,0.592 -0.032,0.177 -0.049,0.533 -0.049,1.07 V -1.21 H -3.258 V 0 h 0.696 v 1.14 l 1.525,0.886 V 0 Z" style="fill:#ffffff;fill-opacity:1;fill-rule:nonzero;stroke:none" id="path367"/>
      </g>
      <g id="g369" transform="matrix(0.35277776,0,0,-0.35277778,142.41957,154.51758)" style="fill:#ffffff">
        <path d="M 0,0 V 0.859 C -0.209,0.553 -0.483,0.312 -0.824,0.135 -1.165,-0.041 -1.523,-0.13 -1.902,-0.13 c -0.385,0 -0.732,0.085 -1.037,0.254 -0.307,0.17 -0.528,0.407 -0.665,0.714 -0.137,0.306 -0.206,0.729 -0.206,1.269 v 3.631 h 1.519 V 3.102 c 0,-0.807 0.027,-1.302 0.084,-1.484 0.056,-0.181 0.157,-0.326 0.305,-0.432 0.147,-0.106 0.335,-0.16 0.562,-0.16 0.259,0 0.491,0.072 0.696,0.214 0.207,0.142 0.347,0.319 0.422,0.53 0.076,0.21 0.114,0.726 0.114,1.547 V 5.738 H 1.41 V 0 Z" style="fill:#ffffff;fill-opacity:1;fill-rule:nonzero;stroke:none" id="path371"/>
      </g>
      <g id="g373" transform="matrix(0.35277776,0,0,-0.35277778,144.58897,153.54536)" style="fill:#ffffff">
        <path d="m 0,0 c -0.195,-0.065 -0.503,-0.143 -0.925,-0.232 -0.421,-0.09 -0.696,-0.179 -0.826,-0.265 -0.198,-0.141 -0.297,-0.319 -0.297,-0.535 0,-0.213 0.079,-0.397 0.237,-0.551 0.159,-0.155 0.361,-0.232 0.606,-0.232 0.273,0 0.535,0.089 0.783,0.269 0.184,0.138 0.305,0.305 0.362,0.503 0.039,0.13 0.06,0.376 0.06,0.74 z M -2.032,1.231 -3.41,1.48 c 0.155,0.555 0.422,0.965 0.8,1.232 0.379,0.267 0.94,0.4 1.685,0.4 0.678,0 1.182,-0.08 1.514,-0.241 C 0.92,2.711 1.153,2.508 1.288,2.261 1.424,2.015 1.491,1.562 1.491,0.902 L 1.475,-0.87 c 0,-0.504 0.024,-0.876 0.073,-1.116 0.049,-0.24 0.139,-0.496 0.272,-0.77 H 0.318 c -0.04,0.101 -0.088,0.25 -0.145,0.448 -0.026,0.09 -0.044,0.15 -0.055,0.179 -0.259,-0.252 -0.536,-0.441 -0.832,-0.567 -0.295,-0.126 -0.61,-0.19 -0.945,-0.19 -0.591,0 -1.057,0.16 -1.397,0.482 -0.34,0.32 -0.51,0.725 -0.51,1.216 0,0.324 0.077,0.613 0.232,0.867 0.154,0.254 0.372,0.448 0.651,0.583 0.279,0.134 0.682,0.253 1.207,0.354 0.71,0.133 1.202,0.257 1.476,0.372 L 0,1.14 C 0,1.432 -0.072,1.64 -0.217,1.764 -0.36,1.889 -0.633,1.95 -1.032,1.95 -1.303,1.95 -1.514,1.897 -1.665,1.791 -1.815,1.685 -1.938,1.498 -2.032,1.231" style="fill:#ffffff;fill-opacity:1;fill-rule:nonzero;stroke:none" id="path375"/>
      </g>
      <path d="m 145.64279,151.72308 h 0.53587 v 2.79436 h -0.53587 z" style="fill:#ffffff;fill-opacity:1;fill-rule:nonzero;stroke:none;stroke-width:0.352778" id="path377"/>
      <g id="g379" transform="matrix(0.35277776,0,0,-0.35277778,147.81562,154.51758)" style="fill:#ffffff">
        <path d="M 0,0 V 7.921 H 5.874 V 6.581 H 1.6 V 4.825 H 5.576 V 3.49 H 1.6 V 1.335 H 6.025 V 0 Z" style="fill:#ffffff;fill-opacity:1;fill-rule:nonzero;stroke:none" id="path381"/>
      </g>
      <g id="g383" transform="matrix(0.35277776,0,0,-0.35277778,150.84284,153.46164)" style="fill:#ffffff">
        <path d="m 0,0 c 0,-0.612 0.084,-1.056 0.254,-1.329 0.245,-0.397 0.587,-0.594 1.026,-0.594 0.35,0 0.647,0.149 0.892,0.445 0.245,0.297 0.367,0.742 0.367,1.332 0,0.66 -0.119,1.134 -0.356,1.424 C 1.945,1.568 1.641,1.713 1.27,1.713 0.909,1.713 0.607,1.57 0.364,1.283 0.121,0.997 0,0.569 0,0 m 4.052,-2.993 h -1.41 v 0.843 c -0.235,-0.329 -0.511,-0.572 -0.83,-0.733 -0.318,-0.16 -0.64,-0.24 -0.964,-0.24 -0.66,0 -1.224,0.266 -1.694,0.797 -0.47,0.531 -0.705,1.272 -0.705,2.223 0,0.973 0.229,1.712 0.686,2.218 0.458,0.507 1.036,0.76 1.734,0.76 0.642,0 1.196,-0.267 1.665,-0.8 v 2.853 h 1.518 z" style="fill:#ffffff;fill-opacity:1;fill-rule:nonzero;stroke:none" id="path385"/>
      </g>
      <g id="g387" transform="matrix(0.35277776,0,0,-0.35277778,154.13292,154.51758)" style="fill:#ffffff">
        <path d="M 0,0 V 0.859 C -0.209,0.553 -0.483,0.312 -0.824,0.135 -1.165,-0.041 -1.523,-0.13 -1.902,-0.13 c -0.385,0 -0.732,0.085 -1.037,0.254 -0.307,0.17 -0.528,0.407 -0.665,0.714 -0.137,0.306 -0.206,0.729 -0.206,1.269 v 3.631 h 1.519 V 3.102 c 0,-0.807 0.027,-1.302 0.084,-1.484 0.056,-0.181 0.157,-0.326 0.305,-0.432 0.147,-0.106 0.335,-0.16 0.562,-0.16 0.259,0 0.491,0.072 0.696,0.214 0.207,0.142 0.347,0.319 0.422,0.53 0.076,0.21 0.114,0.726 0.114,1.547 V 5.738 H 1.41 V 0 Z" style="fill:#ffffff;fill-opacity:1;fill-rule:nonzero;stroke:none" id="path389"/>
      </g>
      <g id="g391" transform="matrix(0.35277776,0,0,-0.35277778,156.94995,153.09165)" style="fill:#ffffff">
        <path d="m 0,0 -1.497,-0.271 c -0.051,0.299 -0.165,0.525 -0.343,0.676 -0.179,0.151 -0.41,0.227 -0.694,0.227 -0.378,0 -0.68,-0.131 -0.905,-0.392 -0.225,-0.261 -0.338,-0.698 -0.338,-1.31 0,-0.681 0.114,-1.161 0.343,-1.443 0.229,-0.281 0.536,-0.422 0.921,-0.422 0.288,0 0.525,0.082 0.708,0.247 0.184,0.164 0.314,0.445 0.389,0.845 l 1.491,-0.254 c -0.154,-0.684 -0.452,-1.201 -0.891,-1.55 -0.44,-0.35 -1.029,-0.525 -1.767,-0.525 -0.839,0 -1.509,0.265 -2.007,0.795 -0.499,0.529 -0.749,1.262 -0.749,2.198 0,0.948 0.251,1.686 0.751,2.213 0.501,0.528 1.179,0.792 2.032,0.792 0.699,0 1.254,-0.15 1.667,-0.451 C -0.477,1.074 -0.181,0.615 0,0" style="fill:#ffffff;fill-opacity:1;fill-rule:nonzero;stroke:none" id="path393"/>
      </g>
      <g id="g395" transform="matrix(0.35277776,0,0,-0.35277778,158.47304,153.54536)" style="fill:#ffffff">
        <path d="m 0,0 c -0.195,-0.065 -0.503,-0.143 -0.925,-0.232 -0.421,-0.09 -0.696,-0.179 -0.826,-0.265 -0.198,-0.141 -0.297,-0.319 -0.297,-0.535 0,-0.213 0.079,-0.397 0.237,-0.551 0.159,-0.155 0.361,-0.232 0.606,-0.232 0.273,0 0.535,0.089 0.783,0.269 0.184,0.138 0.305,0.305 0.362,0.503 0.039,0.13 0.06,0.376 0.06,0.74 z M -2.032,1.231 -3.41,1.48 c 0.155,0.555 0.422,0.965 0.8,1.232 0.379,0.267 0.94,0.4 1.685,0.4 0.678,0 1.182,-0.08 1.514,-0.241 C 0.92,2.711 1.153,2.508 1.288,2.261 1.424,2.015 1.491,1.562 1.491,0.902 L 1.475,-0.87 c 0,-0.504 0.024,-0.876 0.073,-1.116 0.049,-0.24 0.139,-0.496 0.272,-0.77 H 0.318 c -0.04,0.101 -0.088,0.25 -0.145,0.448 -0.026,0.09 -0.044,0.15 -0.055,0.179 -0.259,-0.252 -0.536,-0.441 -0.832,-0.567 -0.295,-0.126 -0.61,-0.19 -0.945,-0.19 -0.591,0 -1.057,0.16 -1.397,0.482 -0.34,0.32 -0.51,0.725 -0.51,1.216 0,0.324 0.077,0.613 0.232,0.867 0.154,0.254 0.372,0.448 0.651,0.583 0.279,0.134 0.682,0.253 1.207,0.354 0.71,0.133 1.202,0.257 1.476,0.372 L 0,1.14 C 0,1.432 -0.072,1.64 -0.217,1.764 -0.36,1.889 -0.633,1.95 -1.032,1.95 -1.303,1.95 -1.514,1.897 -1.665,1.791 -1.815,1.685 -1.938,1.498 -2.032,1.231" style="fill:#ffffff;fill-opacity:1;fill-rule:nonzero;stroke:none" id="path397"/>
      </g>
      <g id="g399" transform="matrix(0.35277776,0,0,-0.35277778,160.45533,152.49323)" style="fill:#ffffff">
        <path d="m 0,0 v -1.21 h -1.037 v -2.313 c 0,-0.468 0.01,-0.741 0.029,-0.819 0.02,-0.077 0.065,-0.141 0.135,-0.191 0.07,-0.051 0.156,-0.076 0.257,-0.076 0.14,0 0.344,0.048 0.61,0.146 l 0.13,-1.178 c -0.353,-0.151 -0.753,-0.227 -1.199,-0.227 -0.275,0 -0.521,0.046 -0.74,0.138 -0.22,0.091 -0.381,0.21 -0.484,0.356 -0.103,0.146 -0.174,0.344 -0.214,0.592 -0.032,0.177 -0.049,0.533 -0.049,1.07 V -1.21 H -3.258 V 0 h 0.696 v 1.14 l 1.525,0.886 V 0 Z" style="fill:#ffffff;fill-opacity:1;fill-rule:nonzero;stroke:none" id="path401"/>
      </g>
      <path d="m 160.82705,152.4932 h 0.53587 v 2.02424 h -0.53587 z m 0,-0.77012 h 0.53587 v 0.4953 h -0.53587 z" style="fill:#ffffff;fill-opacity:1;fill-rule:nonzero;stroke:none;stroke-width:0.352778" id="path403"/>
      <g id="g405" transform="matrix(0.35277776,0,0,-0.35277778,162.33673,153.50539)" style="fill:#ffffff">
        <path d="m 0,0 c 0,-0.569 0.135,-1.005 0.405,-1.308 0.271,-0.302 0.604,-0.454 1,-0.454 0.396,0 0.729,0.152 0.997,0.454 0.268,0.303 0.403,0.743 0.403,1.319 0,0.561 -0.135,0.994 -0.403,1.297 C 2.134,1.61 1.801,1.762 1.405,1.762 1.009,1.762 0.676,1.61 0.405,1.308 0.135,1.005 0,0.569 0,0 m -1.556,0.081 c 0,0.504 0.124,0.992 0.372,1.464 0.249,0.473 0.601,0.832 1.057,1.081 0.456,0.248 0.965,0.373 1.526,0.373 0.869,0 1.58,-0.282 2.135,-0.846 0.555,-0.564 0.832,-1.276 0.832,-2.136 0,-0.869 -0.28,-1.588 -0.841,-2.16 -0.559,-0.57 -1.264,-0.856 -2.115,-0.856 -0.525,0 -1.027,0.119 -1.505,0.356 -0.476,0.239 -0.84,0.587 -1.089,1.046 -0.248,0.459 -0.372,1.019 -0.372,1.678" style="fill:#ffffff;fill-opacity:1;fill-rule:nonzero;stroke:none" id="path407"/>
      </g>
      <g id="g409" transform="matrix(0.35277776,0,0,-0.35277778,166.13734,154.51758)" style="fill:#ffffff">
        <path d="m 0,0 h -1.519 v 2.929 c 0,0.619 -0.032,1.02 -0.096,1.202 -0.066,0.181 -0.171,0.323 -0.317,0.424 -0.145,0.1 -0.321,0.151 -0.526,0.151 -0.264,0 -0.499,-0.072 -0.708,-0.216 C -3.375,4.346 -3.519,4.155 -3.596,3.917 -3.673,3.68 -3.712,3.24 -3.712,2.599 V 0 H -5.23 v 5.738 h 1.41 V 4.896 c 0.501,0.648 1.132,0.972 1.891,0.972 0.335,0 0.641,-0.06 0.918,-0.181 0.278,-0.121 0.488,-0.275 0.63,-0.462 0.143,-0.188 0.241,-0.4 0.297,-0.638 C -0.028,4.35 0,4.009 0,3.566 Z" style="fill:#ffffff;fill-opacity:1;fill-rule:nonzero;stroke:none" id="path411"/>
      </g>
      <g id="g413" transform="matrix(0.35277776,0,0,-0.35277778,167.53089,152.49323)" style="fill:#ffffff">
        <path d="m 0,0 h 0.843 v 0.433 c 0,0.482 0.051,0.842 0.154,1.08 0.103,0.238 0.291,0.431 0.567,0.581 0.276,0.149 0.624,0.224 1.045,0.224 0.433,0 0.856,-0.065 1.27,-0.195 L 3.674,1.064 C 3.433,1.122 3.2,1.15 2.977,1.15 2.757,1.15 2.6,1.1 2.504,0.997 2.409,0.895 2.361,0.697 2.361,0.405 V 0 H 3.496 V -1.194 H 2.361 V -5.738 H 0.843 v 4.544 H 0 Z" style="fill:#ffffff;fill-opacity:1;fill-rule:nonzero;stroke:none" id="path415"/>
      </g>
      <g id="g417" transform="matrix(0.35277776,0,0,-0.35277778,169.49043,153.50539)" style="fill:#ffffff">
        <path d="m 0,0 c 0,-0.569 0.135,-1.005 0.405,-1.308 0.271,-0.302 0.604,-0.454 1,-0.454 0.396,0 0.729,0.152 0.997,0.454 0.268,0.303 0.403,0.743 0.403,1.319 0,0.561 -0.135,0.994 -0.403,1.297 C 2.134,1.61 1.801,1.762 1.405,1.762 1.009,1.762 0.676,1.61 0.405,1.308 0.135,1.005 0,0.569 0,0 m -1.556,0.081 c 0,0.504 0.124,0.992 0.372,1.464 0.249,0.473 0.601,0.832 1.057,1.081 0.456,0.248 0.965,0.373 1.526,0.373 0.869,0 1.58,-0.282 2.135,-0.846 0.555,-0.564 0.832,-1.276 0.832,-2.136 0,-0.869 -0.28,-1.588 -0.841,-2.16 -0.559,-0.57 -1.264,-0.856 -2.115,-0.856 -0.525,0 -1.027,0.119 -1.505,0.356 -0.476,0.239 -0.84,0.587 -1.089,1.046 -0.248,0.459 -0.372,1.019 -0.372,1.678" style="fill:#ffffff;fill-opacity:1;fill-rule:nonzero;stroke:none" id="path419"/>
      </g>
      <g id="g421" transform="matrix(0.35277776,0,0,-0.35277778,171.96266,154.51758)" style="fill:#ffffff">
        <path d="m 0,0 h -1.519 v 5.738 h 1.411 V 4.922 c 0.241,0.386 0.458,0.64 0.651,0.763 0.192,0.122 0.411,0.183 0.656,0.183 0.346,0 0.679,-0.096 1,-0.287 L 1.729,4.258 C 1.473,4.424 1.235,4.506 1.016,4.506 0.803,4.506 0.623,4.447 0.476,4.331 0.327,4.214 0.211,4.002 0.127,3.695 0.042,3.39 0,2.748 0,1.772 Z" style="fill:#ffffff;fill-opacity:1;fill-rule:nonzero;stroke:none" id="path423"/>
      </g>
      <g id="g425" transform="matrix(0.35277776,0,0,-0.35277778,174.05932,154.51758)" style="fill:#ffffff">
        <path d="M 0,0 V 7.921 H 1.6 V 4.804 H 4.733 V 7.921 H 6.332 V 0 H 4.733 V 3.464 H 1.6 V 0 Z" style="fill:#ffffff;fill-opacity:1;fill-rule:nonzero;stroke:none" id="path427"/>
      </g>
      <g id="g429" transform="matrix(0.35277776,0,0,-0.35277778,178.07563,153.3321)" style="fill:#ffffff">
        <path d="M 0,0 C -0.011,0.439 -0.125,0.774 -0.341,1.003 -0.557,1.231 -0.82,1.346 -1.13,1.346 -1.461,1.346 -1.734,1.226 -1.951,0.983 -2.167,0.742 -2.273,0.415 -2.27,0 Z M -0.087,-1.534 1.426,-1.788 C 1.231,-2.343 0.925,-2.766 0.505,-3.055 0.085,-3.345 -0.439,-3.49 -1.07,-3.49 c -0.998,0 -1.737,0.326 -2.215,0.978 -0.379,0.522 -0.568,1.181 -0.568,1.978 0,0.95 0.249,1.695 0.746,2.234 0.497,0.538 1.126,0.808 1.885,0.808 0.854,0 1.528,-0.282 2.021,-0.846 0.494,-0.564 0.729,-1.428 0.708,-2.591 h -3.804 c 0.011,-0.45 0.134,-0.8 0.367,-1.05 0.235,-0.251 0.527,-0.376 0.876,-0.376 0.238,0 0.438,0.065 0.6,0.194 0.162,0.13 0.284,0.339 0.367,0.627" style="fill:#ffffff;fill-opacity:1;fill-rule:nonzero;stroke:none" id="path431"/>
      </g>
      <g id="g433" transform="matrix(0.35277776,0,0,-0.35277778,180.16093,153.54536)" style="fill:#ffffff">
        <path d="m 0,0 c -0.195,-0.065 -0.503,-0.143 -0.925,-0.232 -0.421,-0.09 -0.696,-0.179 -0.826,-0.265 -0.198,-0.141 -0.297,-0.319 -0.297,-0.535 0,-0.213 0.079,-0.397 0.237,-0.551 0.159,-0.155 0.361,-0.232 0.606,-0.232 0.273,0 0.535,0.089 0.783,0.269 0.184,0.138 0.305,0.305 0.362,0.503 0.039,0.13 0.06,0.376 0.06,0.74 z M -2.032,1.231 -3.41,1.48 c 0.155,0.555 0.422,0.965 0.8,1.232 0.379,0.267 0.94,0.4 1.685,0.4 0.678,0 1.182,-0.08 1.514,-0.241 C 0.92,2.711 1.153,2.508 1.288,2.261 1.424,2.015 1.491,1.562 1.491,0.902 L 1.475,-0.87 c 0,-0.504 0.024,-0.876 0.073,-1.116 0.049,-0.24 0.139,-0.496 0.272,-0.77 H 0.318 c -0.04,0.101 -0.088,0.25 -0.145,0.448 -0.026,0.09 -0.044,0.15 -0.055,0.179 -0.259,-0.252 -0.536,-0.441 -0.832,-0.567 -0.295,-0.126 -0.61,-0.19 -0.945,-0.19 -0.591,0 -1.057,0.16 -1.397,0.482 -0.34,0.32 -0.51,0.725 -0.51,1.216 0,0.324 0.077,0.613 0.232,0.867 0.154,0.254 0.372,0.448 0.651,0.583 0.279,0.134 0.682,0.253 1.207,0.354 0.71,0.133 1.202,0.257 1.476,0.372 L 0,1.14 C 0,1.432 -0.072,1.64 -0.217,1.764 -0.36,1.889 -0.633,1.95 -1.032,1.95 -1.303,1.95 -1.514,1.897 -1.665,1.791 -1.815,1.685 -1.938,1.498 -2.032,1.231" style="fill:#ffffff;fill-opacity:1;fill-rule:nonzero;stroke:none" id="path435"/>
      </g>
      <path d="m 181.21478,151.72308 h 0.53587 v 2.79436 h -0.53587 z" style="fill:#ffffff;fill-opacity:1;fill-rule:nonzero;stroke:none;stroke-width:0.352778" id="path437"/>
      <g id="g439" transform="matrix(0.35277776,0,0,-0.35277778,183.22777,152.49323)" style="fill:#ffffff">
        <path d="m 0,0 v -1.21 h -1.037 v -2.313 c 0,-0.468 0.01,-0.741 0.029,-0.819 0.02,-0.077 0.065,-0.141 0.135,-0.191 0.07,-0.051 0.156,-0.076 0.257,-0.076 0.14,0 0.344,0.048 0.61,0.146 l 0.13,-1.178 c -0.353,-0.151 -0.753,-0.227 -1.199,-0.227 -0.275,0 -0.521,0.046 -0.74,0.138 -0.22,0.091 -0.381,0.21 -0.484,0.356 -0.103,0.146 -0.174,0.344 -0.214,0.592 -0.032,0.177 -0.049,0.533 -0.049,1.07 V -1.21 H -3.258 V 0 h 0.696 v 1.14 l 1.525,0.886 V 0 Z" style="fill:#ffffff;fill-opacity:1;fill-rule:nonzero;stroke:none" id="path441"/>
      </g>
      <g id="g443" transform="matrix(0.35277776,0,0,-0.35277778,184.13349,151.72326)" style="fill:#ffffff">
        <path d="m 0,0 v -2.912 c 0.489,0.572 1.075,0.859 1.756,0.859 0.348,0 0.664,-0.065 0.945,-0.194 0.281,-0.13 0.492,-0.296 0.635,-0.497 C 3.479,-2.946 3.575,-3.17 3.628,-3.415 3.68,-3.659 3.706,-4.04 3.706,-4.555 V -7.921 H 2.188 v 3.031 c 0,0.602 -0.029,0.984 -0.086,1.146 -0.058,0.162 -0.16,0.291 -0.306,0.387 -0.146,0.094 -0.328,0.142 -0.548,0.142 -0.253,0 -0.477,-0.061 -0.676,-0.183 C 0.374,-3.521 0.229,-3.705 0.138,-3.952 0.046,-4.199 0,-4.563 0,-5.047 V -7.921 H -1.519 V 0 Z" style="fill:#ffffff;fill-opacity:1;fill-rule:nonzero;stroke:none" id="path445"/>
      </g>
      <g id="g447" transform="matrix(0.35277776,0,0,-0.35277778,98.836802,146.65952)" style="fill:#ffffff">
        <path d="M 0,0 C -0.734,0.877 -0.984,2.076 -2.134,2.943 0.229,2.439 2.228,0.326 2.767,-2.263 2.014,-1.386 0.734,-0.875 0,0 m -28.408,-6.563 c 1.627,3.543 4.055,2.793 5.084,6.168 -0.578,-1.037 -3.232,-1.473 -4.463,-4.126 0.627,1.576 0.313,3.986 1.376,5.291 -3.179,-2.346 -1.827,-6.142 -1.997,-7.333 m 2.95,-8.497 c 0.289,-1.379 -0.566,-3.372 0.796,-5.276 -1.415,1.586 -4.403,1.991 -5.625,4.399 1.524,-5.886 5.495,-4.673 7.292,-5.955 -1.477,2.119 -0.269,3.527 -2.463,6.832 m -0.459,-3.696 c -0.88,3.291 0.681,4.423 -0.505,7.581 -0.125,-1.776 -1.309,-2.647 -0.51,-5.896 -1.412,2.755 -3.593,3.78 -4.227,5.671 0.044,-5.165 4.192,-5.93 5.242,-7.356 m 6.371,-5.514 c -1.221,1.692 -0.388,2.646 -3.821,5.718 0.73,-1.12 -0.018,-2.534 2.295,-4.725 -2.267,1.333 -5.391,0.765 -6.895,2.546 2.585,-4.947 7.132,-2.921 8.421,-3.539 m 16.608,0.993 c 2.314,2.191 1.564,3.605 2.291,4.725 -3.43,-3.072 -2.598,-4.026 -3.82,-5.718 1.29,0.618 5.836,-1.408 8.421,3.539 -1.504,-1.781 -4.63,-1.213 -6.892,-2.546 m 3.59,2.941 c 1.361,1.904 0.501,3.897 0.797,5.276 -2.197,-3.305 -0.991,-4.713 -2.466,-6.832 1.795,1.282 5.768,0.069 7.293,5.955 -1.221,-2.408 -4.213,-2.813 -5.624,-4.399 m -5.484,-4.167 c -1.341,0.359 -2.725,0.537 -3.752,0.561 -1.282,0.031 -2.427,-0.212 -3.423,-0.581 -0.992,0.369 -2.137,0.612 -3.421,0.581 -1.03,-0.024 -2.409,-0.202 -3.751,-0.561 -2.065,-0.553 -3.85,-0.978 -5.404,-0.192 1.488,-1.319 3.229,-1.791 5.742,-1.521 2.094,0.227 3.782,1.272 5.755,1.256 0.028,0 0.048,-0.004 0.076,-0.004 -2.078,-1.046 -3.252,-2.526 -3.252,-2.526 l 0.952,-0.126 c 0,0 1,2.013 3.303,2.534 2.303,-0.521 3.305,-2.534 3.305,-2.534 l 0.952,0.126 c 0,0 -1.175,1.48 -3.252,2.526 0.025,0 0.051,0.004 0.077,0.004 1.973,0.016 3.659,-1.033 5.753,-1.256 2.514,-0.27 4.253,0.202 5.744,1.521 -1.556,-0.786 -3.34,-0.361 -5.404,0.192 m -21.449,16.895 c 0.161,-3.431 -1.752,-4.035 -1.633,-7.035 -0.815,2.093 -3.985,2.686 -2.796,7.679 -0.026,-1.912 1.683,-3.03 2.395,-6.022 -0.138,3.371 1.182,3.746 2.034,5.378 m 1.187,3.857 c -0.293,-0.415 -0.502,-0.588 -1.293,-1.242 -1.078,-0.887 -1.938,-2.052 -2.302,-3.757 0.084,1.831 -1.05,4.464 -0.293,6.38 -2.917,-4.112 0.165,-6.575 0.272,-8.063 0.756,2.866 2.489,2.89 3.616,6.682 M 4.677,-8.75 c -0.362,1.705 -1.224,2.87 -2.301,3.757 -0.789,0.654 -0.998,0.827 -1.296,1.242 1.129,-3.792 2.865,-3.816 3.617,-6.682 0.112,1.488 3.19,3.951 0.275,8.063 0.754,-1.916 -0.379,-4.549 -0.295,-6.38 m 2.47,-2.65 c -0.631,-1.891 -2.817,-2.916 -4.226,-5.671 0.797,3.249 -0.387,4.12 -0.511,5.896 -1.186,-3.158 0.377,-4.29 -0.503,-7.581 1.047,1.426 5.194,2.191 5.24,7.356 m -4.878,3.792 c -0.163,-3.431 1.753,-4.035 1.633,-7.035 0.814,2.093 3.985,2.686 2.798,7.679 0.02,-1.912 -1.684,-3.03 -2.397,-6.022 0.141,3.371 -1.181,3.746 -2.034,5.378 M -24.011,0 c 0.732,0.877 0.984,2.076 2.135,2.943 -2.364,-0.504 -4.365,-2.617 -4.9,-5.206 0.75,0.877 2.03,1.388 2.765,2.263 M -0.69,-0.395 C -0.11,-1.432 2.545,-1.868 3.777,-4.521 3.148,-2.945 3.464,-0.535 2.401,0.77 5.58,-1.576 4.225,-5.372 4.395,-6.563 2.768,-3.02 0.339,-3.77 -0.69,-0.395 m -8.248,-1.916 c -0.614,0.253 -1.261,0.431 -1.939,0.528 -10e-4,-0.147 -0.004,-0.293 -0.008,-0.435 0.623,-0.093 1.222,-0.255 1.787,-0.492 0.075,0.121 0.129,0.249 0.16,0.399 m -0.493,4.178 0.128,0.116 -0.247,0.103 -0.649,0.016 -0.167,-0.119 -0.387,0.032 -0.003,-0.093 c 0.244,-0.016 0.482,-0.04 0.669,-0.071 l 0.316,0.027 z m -1.252,-14.01 c 0,0.109 -0.147,0.221 -0.364,0.322 h -0.038 c -0.004,-0.091 -0.01,-0.531 -0.014,-0.745 0.267,0.123 0.416,0.249 0.416,0.423 m -7.529,8.256 c 0.015,0.091 0.033,0.158 0.058,0.239 -0.082,-0.02 -0.176,-0.03 -0.269,-0.026 z m 6.219,-19.111 c -7.308,0 -13.252,5.945 -13.252,13.253 0,6.842 5.21,12.489 11.868,13.182 0.022,-0.115 0.044,-0.227 0.065,-0.332 0,0 0.007,-0.038 0.018,-0.093 -2.954,-0.302 -5.617,-1.608 -7.637,-3.569 l 1.539,-1.541 c 0.676,0.65 1.434,1.213 2.262,1.673 -0.168,-0.211 -0.307,-0.391 -0.334,-0.446 -0.023,-0.045 -0.064,-0.172 -0.107,-0.32 -0.544,-0.357 -1.051,-0.76 -1.516,-1.211 l 0.879,-0.881 c -0.132,-0.067 -0.27,-0.106 -0.391,-0.116 h -0.097 l -0.696,0.689 c -1.712,-1.799 -2.78,-4.229 -2.812,-6.901 h 2.177 c 0.035,2.07 0.856,3.956 2.178,5.365 l -0.165,0.162 c 0.081,0.165 0.15,0.298 0.207,0.4 l 0.261,-0.258 c 1.182,1.133 2.71,1.91 4.407,2.152 0.004,-0.14 0.005,-0.282 0.007,-0.434 -1.582,-0.237 -3.005,-0.964 -4.111,-2.022 l 1.538,-1.537 c -0.387,-0.498 -0.624,-1.142 -0.624,-1.991 0,-1.112 0.479,-1.993 1.429,-2.615 0.239,-0.158 0.497,-0.294 0.762,-0.411 0.099,-0.199 0.222,-0.383 0.372,-0.545 l 0.289,0.29 c 0.154,-0.051 0.308,-0.1 0.462,-0.148 l -0.438,-0.434 c 0.157,-0.123 0.327,-0.223 0.511,-0.305 0.004,-0.148 0.008,-0.308 0.009,-0.462 -0.3,0.111 -0.579,0.265 -0.824,0.459 l -1.544,-1.543 c 0.329,-0.29 0.698,-0.541 1.098,-0.741 -0.068,-0.12 -0.121,-0.256 -0.155,-0.401 -0.455,0.22 -0.875,0.504 -1.25,0.838 l -1.539,-1.541 c 1.159,-1.074 2.657,-1.785 4.307,-1.971 0.004,-0.118 0.007,-0.269 0.011,-0.432 -1.498,0.153 -2.873,0.724 -4.014,1.587 l 0.029,-0.112 -0.117,-0.275 -0.785,0.026 -0.3,-0.318 -0.564,0.061 -0.413,-0.411 c 1.649,-1.552 3.812,-2.565 6.202,-2.753 0.004,-0.152 0.006,-0.298 0.009,-0.431 -2.514,0.184 -4.787,1.247 -6.514,2.88 l -1.539,-1.54 c 2.302,-2.197 5.418,-3.546 8.842,-3.546 3.446,0 6.575,1.365 8.883,3.581 l -1.541,1.539 c -1.744,-1.663 -4.052,-2.742 -6.606,-2.919 0.004,0.136 0.004,0.284 0.008,0.436 0.586,0.04 1.159,0.132 1.714,0.269 v 0.004 c 0.159,0.041 0.35,0.173 0.363,0.655 0.105,1.962 -1.045,2.647 -1.994,3.121 0,0 0.014,1.181 0.017,1.181 0.598,0.188 1.284,0.375 1.818,0.727 0.016,0.01 0.03,0.02 0.043,0.034 l 0.003,-0.004 c 0.012,0.004 0.021,0.011 0.029,0.019 h -0.003 c 0.63,0.443 0.95,1.041 0.95,1.782 0,1.687 -1.405,2.331 -2.726,2.775 0.016,0.752 0.047,2.261 0.047,2.261 l 0.559,-0.288 0.233,0.042 0.222,-0.046 -0.027,0.196 -0.136,0.051 0.007,0.184 -0.108,-0.012 0.368,0.494 0.143,-0.071 -0.397,-0.378 0.143,0.016 0.139,0.142 0.639,0.107 0.045,-0.067 0.611,0.61 c -0.031,0.03 -0.06,0.056 -0.092,0.081 l -0.157,-0.002 -0.203,-0.059 -0.032,-0.065 -0.116,-0.058 -0.009,-0.078 -0.147,0.009 -0.224,-0.057 -0.089,0.142 0.324,0.107 0.113,-0.111 0.067,0.182 0.181,0.101 0.079,0.077 c -0.045,0.035 -0.088,0.071 -0.133,0.1 0.153,0.062 0.303,0.123 0.452,0.194 0.098,-0.083 0.198,-0.168 0.291,-0.259 l 1.538,1.541 c -0.036,0.036 -0.075,0.067 -0.113,0.103 0.157,0.233 0.284,0.48 0.379,0.748 l 0.201,-0.385 0.501,0.498 -0.176,0.268 0.264,0.062 -0.566,0.709 c 0.004,0.087 0.008,0.176 0.006,0.262 0,0.674 -0.212,1.343 -0.603,1.922 l 0.205,0.061 0.099,0.105 1.144,-0.606 0.364,-0.397 0.176,-0.599 -0.056,-0.17 0.264,-0.015 0.19,-0.083 -0.053,-0.259 1.461,1.462 c -2.033,1.996 -4.727,3.32 -7.717,3.61 0.019,0.105 0.042,0.221 0.068,0.35 0.007,0.023 0.013,0.049 0.018,0.075 C -3.97,2.765 1.26,-2.892 1.26,-9.745 c 0,-7.308 -5.943,-13.253 -13.253,-13.253 m 2.86,9.156 v 0.01 l 0.006,-0.01 z m 6.417,12.941 -1.539,-1.54 c 0.204,-0.217 0.4,-0.441 0.584,-0.672 l 0.54,-0.45 0.46,-0.638 0.392,-0.683 -0.035,-0.117 -0.152,0.079 -0.018,-0.036 c 0.707,-1.404 1.115,-2.98 1.137,-4.653 H 0.83 c -0.034,3.372 -1.378,6.439 -3.546,8.71 m -2.773,-2.793 0.526,-0.021 0.122,-0.152 -0.06,-0.222 0.727,-0.452 0.14,0.02 0.931,-1.065 0.38,0.133 c 0.589,-1.266 0.927,-2.677 0.945,-4.158 h -2.179 c -0.01,0.573 -0.08,1.126 -0.202,1.659 l 0.099,0.137 0.134,0.679 -0.1,0.731 -0.263,0.845 -0.608,0.889 0.149,-0.077 0.073,0.075 -0.485,0.33 -0.034,-0.111 0.487,-0.695 0.278,-0.573 0.194,-0.567 0.064,-0.381 0.1,-0.638 -0.181,-0.016 c 0,0 -0.212,0.391 -0.276,0.557 l 0.099,0.146 -0.187,0.265 v 0.265 l -0.132,0.168 -0.165,-0.018 c -0.061,0.106 -0.121,0.215 -0.186,0.322 l 0.115,-0.061 0.033,0.033 -0.065,0.136 0.144,0.08 -0.065,0.08 -0.209,-0.08 0.077,0.331 -0.125,0.071 -0.113,-0.262 c -0.237,0.355 -0.502,0.693 -0.792,1.005 z m -0.434,-5.101 0.23,-0.152 -0.025,-0.115 -0.258,-0.026 -0.099,-0.075 -0.044,-0.106 -0.22,-0.178 0.043,-0.164 h 1.909 c -0.008,0.391 -0.045,0.772 -0.108,1.146 l -0.308,-0.409 0.008,0.211 0.212,0.63 c -0.026,0.117 -0.056,0.233 -0.088,0.346 l -0.067,-0.322 -0.088,-0.186 -0.22,-0.136 -0.088,-0.194 -0.4,-0.061 z m -2.615,1.497 0.247,-0.091 0.063,-0.087 0.09,0.219 H -8.22 l -0.079,0.152 0.161,0.044 0.214,-0.152 0.082,0.253 c -0.125,0.185 -0.26,0.357 -0.406,0.527 l -0.233,-0.233 -0.066,-0.413 0.195,-0.128 0.008,-0.05 z m 0.834,-7.233 -0.47,0.134 -0.143,-0.055 -0.265,0.207 -0.252,0.087 c 0.124,0.091 0.244,0.184 0.361,0.279 l 0.386,-0.273 0.296,-0.152 0.148,-0.148 z m -0.241,8.398 1.543,1.541 c 0.36,-0.389 0.679,-0.816 0.952,-1.278 l -0.192,-0.053 0.01,-0.342 0.581,-0.365 c 0.139,-0.315 0.258,-0.638 0.358,-0.974 l -0.102,-0.146 -0.208,-0.133 -0.052,-0.322 -0.142,-0.077 -0.119,-0.142 -0.121,0.042 -0.212,0.01 0.125,0.167 0.087,0.439 0.143,0.087 -0.417,0.395 -0.309,-0.105 -0.073,-0.29 -0.195,-0.213 -0.202,0.167 -0.073,0.182 0.116,0.067 0.065,-0.116 0.094,0.035 -0.04,0.198 -0.136,0.006 -0.009,-0.081 -0.09,-0.016 -0.478,0.557 -0.161,0.126 0.062,0.065 0.144,0.052 -0.135,0.051 c 0,0 -0.169,-0.035 -0.188,-0.035 l 0.096,-0.123 -0.243,0.006 c -0.144,0.219 -0.304,0.427 -0.479,0.618 m 0.786,-8.197 -0.209,0.212 0.16,0.205 0.202,0.411 -0.081,0.115 0.136,0.304 -0.015,0.274 -0.081,0.283 -0.192,0.067 -0.068,-0.162 -0.113,0.032 c 0.163,0.26 0.336,0.505 0.454,0.798 l 0.197,0.079 0.109,0.15 0.053,-0.062 0.134,0.162 -0.108,0.133 0.099,0.022 0.176,-0.068 0.338,-0.01 0.204,0.107 0.532,0.142 -0.101,0.174 -0.036,0.215 0.286,-0.124 0.108,0.059 -0.054,0.223 -0.351,-0.132 -0.384,0.081 -0.295,0.6 h 1.668 c -0.074,-1.917 -0.859,-3.655 -2.102,-4.955 l -0.231,0.229 0.101,0.308 -0.177,0.67 z m 0.295,-4.248 0.204,0.44 -0.079,0.194 0.301,0.269 v 0.158 l -0.257,0.16 0.213,0.422 0.319,0.421 -0.319,0.344 h -0.241 l -0.148,0.239 c 0.128,0.106 0.254,0.217 0.376,0.329 l 1.541,-1.542 c -0.577,-0.547 -1.217,-1.033 -1.91,-1.434 m 1.917,2.034 0.296,-0.296 c 1.716,1.774 2.794,4.164 2.87,6.8 H -3.96 c -0.075,-2.038 -0.91,-3.883 -2.23,-5.257 l 0.665,-0.666 0.075,0.071 0.037,0.377 0.069,0.305 0.365,-0.117 -0.069,-0.142 0.112,-0.046 0.161,-0.841 z m 0.603,-0.6 c 1.791,1.853 2.919,4.349 2.994,7.104 h 2.178 c -0.076,-3.355 -1.448,-6.397 -3.635,-8.643 z m -13.11,2.113 1.539,1.539 c -0.868,0.911 -1.426,2.117 -1.499,3.452 h -0.364 l 0.104,-0.173 -0.107,-0.64 0.021,-0.36 0.008,-0.176 0.072,-0.092 -0.041,-0.259 -0.07,-0.008 -0.149,0.288 -0.088,0.247 0.038,0.038 0.087,-0.107 0.126,0.069 -0.191,0.417 0.063,0.091 0.094,0.513 -0.08,0.152 h -0.507 l -0.105,-0.173 h -0.3 l -0.11,-0.289 0.111,-0.253 -0.109,-0.313 0.272,-0.135 0.313,-0.596 -0.054,-0.314 0.256,-0.504 0.055,-0.826 0.232,-0.531 -0.068,-0.547 c 0.143,-0.178 0.294,-0.346 0.451,-0.51 m -1.439,4.259 -0.208,-0.324 h -0.352 l -0.027,0.019 c -0.062,0.34 -0.097,0.682 -0.111,1.037 h 0.654 l -0.155,-0.529 z m 0.714,1.491 0.237,-0.33 h 0.523 c 0.005,0.253 0.03,0.504 0.071,0.751 l -0.071,0.083 -0.46,0.081 -0.258,-0.148 z m 2.212,-1.626 0.108,0.054 0.285,-0.215 -0.122,-0.099 0.32,-0.214 -0.022,0.229 0.172,0.281 0.178,-0.19 0.182,-0.262 -0.328,-0.075 0.148,-0.295 0.233,0.121 -0.031,0.097 0.172,0.116 0.101,0.472 c 0.125,-0.28 0.293,-0.539 0.497,-0.762 l -1.535,-1.539 c -0.738,0.771 -1.227,1.774 -1.351,2.89 l 0.315,-0.336 0.296,0.004 z m -1.578,6.352 1.539,-1.536 c -0.322,-0.352 -0.597,-0.747 -0.816,-1.173 l -0.109,0.002 -0.216,-0.068 -0.075,0.006 -0.232,-0.213 0.294,0.045 0.261,0.068 c -0.016,-0.032 -0.031,-0.068 -0.045,-0.101 l -0.23,-0.139 h -0.109 l -0.34,-0.258 -0.324,0.025 -0.477,-0.88 0.098,-0.178 -0.259,-0.281 -0.039,-0.375 h -0.972 c 0.034,1.954 0.808,3.727 2.051,5.056 m -1.99,-11.613 -0.244,-0.178 c 0.157,-0.18 0.313,-0.361 0.48,-0.529 l 0.356,0.351 -0.104,0.071 z m -0.487,6.128 h -2.182 c 0.029,-0.983 0.197,-1.933 0.487,-2.826 h 0.312 l 0.57,0.19 -0.014,0.967 0.555,0.71 0.055,0.268 0.267,0.058 c -0.025,0.211 -0.041,0.42 -0.05,0.633 m -2.152,-2.818 -0.127,0.024 -0.12,0.136 -0.614,0.055 0.192,-0.256 -0.567,0.106 0.149,0.136 -0.139,0.137 -0.409,-0.178 -0.145,-0.273 0.055,-0.618 0.469,-1.126 0.226,-0.351 0.133,-0.049 -0.359,0.675 -0.076,0.344 0.08,0.081 -0.049,0.193 0.212,-0.027 0.331,-0.5 0.08,-0.032 -0.007,0.362 0.131,-0.077 0.028,-0.198 0.347,-0.091 0.145,0.101 0.049,-0.036 -0.004,-0.262 0.151,-0.19 0.185,-0.039 0.404,-0.684 0.244,-0.067 0.075,0.32 c 0.427,-0.701 0.929,-1.357 1.5,-1.937 l -1.539,-1.541 c -2.206,2.251 -3.59,5.307 -3.666,8.68 h 2.177 c 0.026,-0.979 0.186,-1.921 0.458,-2.818 m 0.94,11.993 1.54,-1.537 c -1.793,-1.884 -2.907,-4.416 -2.942,-7.209 h -2.177 c 0.035,3.391 1.393,6.471 3.579,8.746 m 15.766,0.796 -0.131,0.211 -0.285,0.142 -0.223,-0.168 0.286,-0.15 0.318,-0.233 z m -1.319,-6.145 0.008,-0.168 0.38,0.113 0.113,0.227 -0.262,0.346 0.139,0.207 0.352,-0.253 0.067,0.052 -0.072,0.053 -0.08,0.148 0.146,0.085 -0.143,0.188 -0.329,-0.172 -0.117,-0.198 -0.063,-0.181 0.144,-0.245 -0.054,-0.115 z m -15.748,-9.769 0.027,0.101 -0.196,0.423 -0.23,0.085 z m 8.906,8.183 c 0,-0.365 0.221,-0.62 0.625,-0.843 0,0 -0.002,0.061 -0.003,0.162 l -0.254,0.255 0.134,0.243 0.11,0.031 c -0.009,0.427 -0.017,0.903 -0.021,0.972 l -0.017,-0.004 c -0.373,-0.207 -0.574,-0.456 -0.574,-0.816" style="fill:#ffffff;fill-opacity:1;fill-rule:evenodd;stroke:none" id="path449"/>
      </g>
      <g id="g451" transform="matrix(0.35277776,0,0,-0.35277778,94.88682,152.74095)" style="fill:#ffffff">
        <path d="M 0,0 C 0.683,-0.346 1.314,-0.822 1.577,-1.728 1.692,-0.225 0.852,0.425 0.017,0.865 0.019,0.861 -0.001,0 0,0" style="fill:#ffffff;fill-opacity:1;fill-rule:evenodd;stroke:none" id="path453"/>
      </g>
      <g id="g455" transform="matrix(0.35277776,0,0,-0.35277778,96.488678,147.37097)" style="fill:#ffffff">
        <path d="M 0,0 C 0,1.363 -0.99,2.874 -3.41,3.407 -3.588,3.447 -3.862,3.474 -4.149,3.492 -4.153,3.287 -4.166,2.815 -4.166,2.815 -4.168,2.669 -4.179,2.123 -4.182,2.007 -3.96,1.987 -3.794,1.957 -3.718,1.942 -2.311,1.606 -1.806,0.796 -1.806,0 c 0,-1.294 -1.105,-1.779 -2.464,-2.153 -0.148,-0.037 -0.299,-0.077 -0.452,-0.116 -0.412,-0.103 -0.838,-0.2 -1.257,-0.312 -0.149,-0.04 -0.298,-0.085 -0.445,-0.131 -1.507,-0.456 -2.802,-1.185 -2.802,-3.045 0,-1.841 1.477,-2.536 2.919,-2.977 -0.01,0.531 -0.02,1.061 -0.031,1.598 -0.635,0.298 -1.086,0.689 -1.086,1.353 0,0.648 0.408,1.035 1.035,1.321 0.139,0.062 0.287,0.119 0.445,0.17 0.359,0.125 0.763,0.231 1.187,0.332 0.146,0.036 0.298,0.071 0.448,0.107 C -2.275,-3.362 0,-2.726 0,0" style="fill:#ffffff;fill-opacity:1;fill-rule:evenodd;stroke:none" id="path457"/>
      </g>
      <g id="g459" transform="matrix(0.35277776,0,0,-0.35277778,93.914106,151.95916)" style="fill:#ffffff">
        <path d="M 0,0 C 0.005,-0.747 0.551,-1.152 1.098,-1.458 1.096,-1.333 1.077,-0.18 1.075,-0.158 1.086,0.069 1.31,0.207 1.49,0.292 1.756,0.419 2.022,0.509 2.362,0.628 2.526,0.683 2.664,0.739 2.821,0.784 3.923,1.118 5.197,1.539 5.197,2.88 5.197,4.223 4.105,4.77 2.908,5.185 2.9,4.758 2.889,4.136 2.882,3.703 3.383,3.502 3.718,3.259 3.718,2.88 3.718,2.398 3.206,2.123 2.844,1.981 2.692,1.926 2.46,1.849 2.399,1.825 2.104,1.736 1.787,1.631 1.494,1.521 1.339,1.468 1.188,1.402 1.048,1.327 0.532,1.064 -0.004,0.677 0,0" style="fill:#ffffff;fill-opacity:1;fill-rule:evenodd;stroke:none" id="path461"/>
      </g>
      <g id="g463" transform="matrix(0.35277776,0,0,-0.35277778,94.177807,146.21358)" style="fill:#ffffff">
        <path d="m 0,0 c -0.734,-0.209 -1.166,-0.488 -1.329,-0.539 -0.475,-0.162 -1.145,-0.188 -1.838,-0.94 -0.121,-0.135 -0.422,-0.514 -0.634,-0.822 -0.209,-0.3 -0.218,-0.782 -0.372,-1.045 -0.223,-0.371 -0.168,-0.588 -0.168,-0.588 l 0.006,-0.014 c -0.008,-0.046 -0.054,-0.243 -0.253,-0.468 -0.233,-0.257 -0.538,-0.399 -0.901,-0.344 0.317,-0.158 0.753,0.065 0.753,0.065 0,0 -0.085,-0.239 -0.167,-0.628 0.353,0.802 0.677,1.094 0.778,1.175 0.153,-0.033 0.468,-0.019 1.052,0.316 0.661,0.38 1.655,0.998 1.935,1.389 0.306,0.425 0.722,0.703 1.171,0.881 C 0.022,-0.968 0.011,-0.442 0,0 m -2.885,-2.611 -0.341,-0.075 0.502,0.78 0.478,-0.016 z" style="fill:#ffffff;fill-opacity:1;fill-rule:evenodd;stroke:none" id="path465"/>
      </g>
      <g id="g467" transform="matrix(0.35277776,0,0,-0.35277778,94.658925,151.92713)" style="fill:#ffffff">
        <path d="m 0,0 c -0.063,-0.022 -0.229,-0.093 -0.335,-0.128 -0.111,-0.044 -0.25,-0.095 -0.25,-0.137 0,-0.009 0.106,-5.775 0.106,-5.901 0,-1.189 0.605,-1.195 0.605,0 0,0.083 0.124,6.251 0.124,6.251 C 0.25,0.085 0.104,0.039 0,0" style="fill:#ffffff;fill-opacity:1;fill-rule:evenodd;stroke:none" id="path469"/>
      </g>
      <g id="g471" transform="matrix(0.35277776,0,0,-0.35277778,94.438086,151.25544)" style="fill:#ffffff">
        <path d="M 0,0 C 0.187,0.063 0.376,0.122 0.55,0.178 0.682,0.219 0.803,0.251 0.914,0.294 0.923,0.656 1.028,5.673 1.046,6.585 0.595,6.47 0.202,6.368 -0.122,6.247 -0.107,5.562 -0.011,0.549 0,0" style="fill:#ffffff;fill-opacity:1;fill-rule:evenodd;stroke:none" id="path473"/>
      </g>
      <g id="g475" transform="matrix(0.35277776,0,0,-0.35277778,94.615392,144.47579)" style="fill:#ffffff">
        <path d="m 0,0 c -1.698,0 -0.977,-2.518 -0.842,-3.34 0.006,-0.039 0.138,-5.692 0.164,-6.99 0.258,0.067 0.513,0.132 0.763,0.194 0.178,0.043 0.35,0.084 0.513,0.126 0.025,1.25 0.152,6.644 0.156,6.68 C 0.856,-2.449 1.744,0 0,0" style="fill:#ffffff;fill-opacity:1;fill-rule:evenodd;stroke:none" id="path477"/>
      </g>
      <g aria-label="LABORATRIO DE INOVAO TECNOLGICA EM SADE" id="text5935" style="font-size:6.66589px;line-height:1.25;text-align:end;text-anchor:end;fill:#ffffff;stroke-width:0.264583">
        <path d="m 86.738412,130.22498 v -4.66613 h 0.493276 v 4.23951 h 2.613029 v 0.42662 z" style="font-family:Montserrat;-inkscape-font-specification:Montserrat" id="path971"/>
        <path d="m 89.918046,130.22498 2.133085,-4.66613 h 0.48661 l 2.133085,4.66613 h -0.519939 l -1.959772,-4.37949 h 0.199977 l -1.959772,4.37949 z m 0.839903,-1.24653 0.146649,-0.39995 h 2.713018 l 0.146649,0.39995 z" style="font-family:Montserrat;-inkscape-font-specification:Montserrat" id="path973"/>
        <path d="m 95.444063,130.22498 v -4.66613 h 2.013099 q 0.779909,0 1.206526,0.3133 0.433283,0.3133 0.433283,0.88656 0,0.37996 -0.179979,0.63993 -0.173313,0.25997 -0.479944,0.39329 -0.299965,0.13331 -0.659923,0.13331 l 0.11332,-0.15998 q 0.446615,0 0.766578,0.13999 0.326628,0.13331 0.506607,0.40662 0.179979,0.26663 0.179979,0.66658 0,0.59327 -0.439949,0.9199 -0.433282,0.32663 -1.31318,0.32663 z m 0.493276,-0.40662 h 1.646475 q 0.613262,0 0.939891,-0.20665 0.326628,-0.2133 0.326628,-0.67325 0,-0.45328 -0.326628,-0.65992 -0.326629,-0.21331 -0.939891,-0.21331 h -1.699802 v -0.40662 h 1.539821 q 0.559935,0 0.866566,-0.21331 0.313296,-0.21331 0.313296,-0.63326 0,-0.42662 -0.313296,-0.63326 -0.306631,-0.21331 -0.866566,-0.21331 h -1.486494 z" style="font-family:Montserrat;-inkscape-font-specification:Montserrat" id="path975"/>
        <path d="m 102.50991,130.26497 q -0.52661,0 -0.97989,-0.17331 -0.44662,-0.17998 -0.77991,-0.49994 -0.32663,-0.32663 -0.51327,-0.75325 -0.17998,-0.43328 -0.17998,-0.94656 0,-0.51327 0.17998,-0.93989 0.18664,-0.43328 0.51327,-0.75324 0.33329,-0.32663 0.77991,-0.49994 0.44661,-0.17998 0.97989,-0.17998 0.5266,0 0.97322,0.17998 0.44661,0.17331 0.77324,0.49327 0.33329,0.31996 0.51327,0.75325 0.18665,0.43328 0.18665,0.94655 0,0.51328 -0.18665,0.94656 -0.17998,0.43328 -0.51327,0.75325 -0.32663,0.31996 -0.77324,0.49994 -0.44662,0.17331 -0.97322,0.17331 z m 0,-0.43995 q 0.41995,0 0.77324,-0.13998 0.35996,-0.14665 0.61993,-0.40662 0.26663,-0.26664 0.41328,-0.61326 0.14665,-0.35329 0.14665,-0.77325 0,-0.41995 -0.14665,-0.76657 -0.14665,-0.3533 -0.41328,-0.61327 -0.25997,-0.26663 -0.61993,-0.40661 -0.35329,-0.14665 -0.77324,-0.14665 -0.41996,0 -0.77991,0.14665 -0.35996,0.13998 -0.6266,0.40661 -0.25997,0.25997 -0.41328,0.61327 -0.14665,0.34662 -0.14665,0.76657 0,0.41329 0.14665,0.76658 0.15331,0.35329 0.41328,0.61993 0.26664,0.25997 0.6266,0.40662 0.35995,0.13998 0.77991,0.13998 z" style="font-family:Montserrat;-inkscape-font-specification:Montserrat" id="path977"/>
        <path d="m 106.06283,130.22498 v -4.66613 h 1.74646 q 0.59327,0 1.01988,0.19331 0.42662,0.18665 0.65326,0.54661 0.23331,0.35329 0.23331,0.8599 0,0.49327 -0.23331,0.85323 -0.22664,0.35329 -0.65326,0.5466 -0.42661,0.18665 -1.01988,0.18665 h -1.47316 l 0.21998,-0.22664 v 1.70647 z m 3.18629,0 -1.19986,-1.69314 h 0.53328 l 1.20652,1.69314 z m -2.69301,-1.66648 -0.21998,-0.2333 h 1.45983 q 0.69992,0 1.05988,-0.30663 0.36662,-0.30664 0.36662,-0.8599 0,-0.55994 -0.36662,-0.86657 -0.35996,-0.30663 -1.05988,-0.30663 h -1.45983 l 0.21998,-0.23331 z" style="font-family:Montserrat;-inkscape-font-specification:Montserrat" id="path979"/>
        <path d="m 110.13568,130.22498 2.13309,-4.66613 h 0.48661 l 2.13308,4.66613 h -0.51994 l -1.95977,-4.37949 h 0.19998 l -1.95977,4.37949 z m 0.83991,-1.24653 0.14665,-0.39995 h 2.71301 l 0.14665,0.39995 z" style="font-family:Montserrat;-inkscape-font-specification:Montserrat" id="path981"/>
        <path d="m 116.33496,130.22498 v -4.23951 h -1.63981 v -0.42662 h 3.77289 v 0.42662 h -1.63981 v 4.23951 z" style="font-family:Montserrat;-inkscape-font-specification:Montserrat" id="path983"/>
        <path d="m 121.22771,130.26497 q -0.5266,0 -0.97988,-0.17331 -0.44662,-0.17998 -0.77991,-0.49994 -0.32663,-0.32663 -0.51327,-0.75325 -0.17998,-0.43328 -0.17998,-0.94656 0,-0.51327 0.17998,-0.93989 0.18664,-0.43328 0.51327,-0.75324 0.33329,-0.32663 0.77991,-0.49994 0.44661,-0.17998 0.97988,-0.17998 0.52661,0 0.97322,0.17998 0.44662,0.17331 0.77325,0.49327 0.33329,0.31996 0.51327,0.75325 0.18665,0.43328 0.18665,0.94655 0,0.51328 -0.18665,0.94656 -0.17998,0.43328 -0.51327,0.75325 -0.32663,0.31996 -0.77325,0.49994 -0.44661,0.17331 -0.97322,0.17331 z m 0,-0.43995 q 0.41995,0 0.77325,-0.13998 0.35996,-0.14665 0.61992,-0.40662 0.26664,-0.26664 0.41329,-0.61326 0.14665,-0.35329 0.14665,-0.77325 0,-0.41995 -0.14665,-0.76657 -0.14665,-0.3533 -0.41329,-0.61327 -0.25996,-0.26663 -0.61992,-0.40661 -0.3533,-0.14665 -0.77325,-0.14665 -0.41995,0 -0.77991,0.14665 -0.35995,0.13998 -0.62659,0.40661 -0.25997,0.25997 -0.41328,0.61327 -0.14665,0.34662 -0.14665,0.76657 0,0.41329 0.14665,0.76658 0.15331,0.35329 0.41328,0.61993 0.26664,0.25997 0.62659,0.40662 0.35996,0.13998 0.77991,0.13998 z m -0.43328,-4.64612 0.91323,-0.82657 h 0.63326 l -1.07988,0.82657 z" style="font-family:Montserrat;-inkscape-font-specification:Montserrat" id="path985"/>
        <path d="m 124.78064,130.22498 v -4.66613 h 1.74646 q 0.59327,0 1.01989,0.19331 0.42661,0.18665 0.65325,0.54661 0.23331,0.35329 0.23331,0.8599 0,0.49327 -0.23331,0.85323 -0.22664,0.35329 -0.65325,0.5466 -0.42662,0.18665 -1.01989,0.18665 h -1.47316 l 0.21998,-0.22664 v 1.70647 z m 3.1863,0 -1.19986,-1.69314 h 0.53327 l 1.20652,1.69314 z m -2.69302,-1.66648 -0.21998,-0.2333 h 1.45983 q 0.69992,0 1.05988,-0.30663 0.36662,-0.30664 0.36662,-0.8599 0,-0.55994 -0.36662,-0.86657 -0.35996,-0.30663 -1.05988,-0.30663 h -1.45983 l 0.21998,-0.23331 z" style="font-family:Montserrat;-inkscape-font-specification:Montserrat" id="path987"/>
        <path d="m 129.60008,130.22498 v -4.66613 h 0.49327 v 4.66613 z" style="font-family:Montserrat;-inkscape-font-specification:Montserrat" id="path989"/>
        <path d="m 133.65294,130.26497 q -0.52661,0 -0.97989,-0.17331 -0.44661,-0.17998 -0.77991,-0.49994 -0.32663,-0.32663 -0.51327,-0.75325 -0.17998,-0.43328 -0.17998,-0.94656 0,-0.51327 0.17998,-0.93989 0.18664,-0.43328 0.51327,-0.75324 0.3333,-0.32663 0.77991,-0.49994 0.44662,-0.17998 0.97989,-0.17998 0.5266,0 0.97322,0.17998 0.44661,0.17331 0.77324,0.49327 0.3333,0.31996 0.51327,0.75325 0.18665,0.43328 0.18665,0.94655 0,0.51328 -0.18665,0.94656 -0.17997,0.43328 -0.51327,0.75325 -0.32663,0.31996 -0.77324,0.49994 -0.44662,0.17331 -0.97322,0.17331 z m 0,-0.43995 q 0.41995,0 0.77324,-0.13998 0.35996,-0.14665 0.61993,-0.40662 0.26663,-0.26664 0.41328,-0.61326 0.14665,-0.35329 0.14665,-0.77325 0,-0.41995 -0.14665,-0.76657 -0.14665,-0.3533 -0.41328,-0.61327 -0.25997,-0.26663 -0.61993,-0.40661 -0.35329,-0.14665 -0.77324,-0.14665 -0.41995,0 -0.77991,0.14665 -0.35996,0.13998 -0.62659,0.40661 -0.25997,0.25997 -0.41329,0.61327 -0.14665,0.34662 -0.14665,0.76657 0,0.41329 0.14665,0.76658 0.15332,0.35329 0.41329,0.61993 0.26663,0.25997 0.62659,0.40662 0.35996,0.13998 0.77991,0.13998 z" style="font-family:Montserrat;-inkscape-font-specification:Montserrat" id="path991"/>
        <path d="m 138.95232,130.22498 v -4.66613 h 1.89978 q 0.74658,0 1.30651,0.29997 0.5666,0.2933 0.8799,0.8199 0.3133,0.52661 0.3133,1.21319 0,0.68659 -0.3133,1.2132 -0.3133,0.5266 -0.8799,0.82657 -0.55993,0.2933 -1.30651,0.2933 z m 0.49327,-0.42662 h 1.37984 q 0.61993,0 1.07321,-0.23997 0.45995,-0.24664 0.71325,-0.67326 0.25331,-0.43328 0.25331,-0.99322 0,-0.5666 -0.25331,-0.99321 -0.2533,-0.42662 -0.71325,-0.66659 -0.45328,-0.24664 -1.07321,-0.24664 h -1.37984 z" style="font-family:Montserrat;-inkscape-font-specification:Montserrat" id="path993"/>
        <path d="m 144.89829,127.64528 h 2.46638 v 0.41995 h -2.46638 z m 0.0533,2.15308 h 2.80634 v 0.42662 h -3.29962 v -4.66613 h 3.19963 v 0.42662 h -2.70635 z" style="font-family:Montserrat;-inkscape-font-specification:Montserrat" id="path995"/>
        <path d="m 150.66429,130.22498 v -4.66613 h 0.49327 v 4.66613 z" style="font-family:Montserrat;-inkscape-font-specification:Montserrat" id="path997"/>
        <path d="m 152.67738,130.22498 v -4.66613 h 0.40662 l 3.21963,4.05286 h -0.21331 v -4.05286 h 0.48661 v 4.66613 h -0.40662 l -3.21296,-4.05287 h 0.21331 v 4.05287 z" style="font-family:Montserrat;-inkscape-font-specification:Montserrat" id="path999"/>
        <path d="m 160.13651,130.26497 q -0.5266,0 -0.97988,-0.17331 -0.44662,-0.17998 -0.77991,-0.49994 -0.32663,-0.32663 -0.51328,-0.75325 -0.17998,-0.43328 -0.17998,-0.94656 0,-0.51327 0.17998,-0.93989 0.18665,-0.43328 0.51328,-0.75324 0.33329,-0.32663 0.77991,-0.49994 0.44661,-0.17998 0.97988,-0.17998 0.52661,0 0.97322,0.17998 0.44662,0.17331 0.77325,0.49327 0.33329,0.31996 0.51327,0.75325 0.18664,0.43328 0.18664,0.94655 0,0.51328 -0.18664,0.94656 -0.17998,0.43328 -0.51327,0.75325 -0.32663,0.31996 -0.77325,0.49994 -0.44661,0.17331 -0.97322,0.17331 z m 0,-0.43995 q 0.41995,0 0.77325,-0.13998 0.35995,-0.14665 0.61992,-0.40662 0.26664,-0.26664 0.41329,-0.61326 0.14665,-0.35329 0.14665,-0.77325 0,-0.41995 -0.14665,-0.76657 -0.14665,-0.3533 -0.41329,-0.61327 -0.25997,-0.26663 -0.61992,-0.40661 -0.3533,-0.14665 -0.77325,-0.14665 -0.41995,0 -0.77991,0.14665 -0.35996,0.13998 -0.62659,0.40661 -0.25997,0.25997 -0.41329,0.61327 -0.14665,0.34662 -0.14665,0.76657 0,0.41329 0.14665,0.76658 0.15332,0.35329 0.41329,0.61993 0.26663,0.25997 0.62659,0.40662 0.35996,0.13998 0.77991,0.13998 z" style="font-family:Montserrat;-inkscape-font-specification:Montserrat" id="path1001"/>
        <path d="m 164.87508,130.22498 -2.06642,-4.66613 h 0.53327 l 1.93311,4.39282 h -0.2933 l 1.94644,-4.39282 h 0.49994 l -2.06643,4.66613 z" style="font-family:Montserrat;-inkscape-font-specification:Montserrat" id="path1003"/>
        <path d="m 167.21392,130.22498 2.13309,-4.66613 h 0.48661 l 2.13308,4.66613 h -0.51994 l -1.95977,-4.37949 h 0.19998 l -1.95977,4.37949 z m 0.83991,-1.24653 0.14665,-0.39995 h 2.71301 l 0.14665,0.39995 z" style="font-family:Montserrat;-inkscape-font-specification:Montserrat" id="path1005"/>
        <path d="m 174.69971,130.26497 q -0.5266,0 -0.97322,-0.17331 -0.44661,-0.17998 -0.77324,-0.49994 -0.32663,-0.31997 -0.51328,-0.75325 -0.17998,-0.43328 -0.17998,-0.94656 0,-0.51327 0.17998,-0.94655 0.18665,-0.43329 0.51328,-0.75325 0.33329,-0.31996 0.77991,-0.49327 0.44661,-0.17998 0.97322,-0.17998 0.5066,0 0.95322,0.17331 0.44661,0.16665 0.75324,0.50661 l -0.31329,0.31329 q -0.28664,-0.29329 -0.63326,-0.41995 -0.34663,-0.13331 -0.74658,-0.13331 -0.41995,0 -0.77991,0.14665 -0.35996,0.13998 -0.62659,0.40661 -0.26664,0.25997 -0.41996,0.61327 -0.14665,0.34662 -0.14665,0.76657 0,0.41996 0.14665,0.77325 0.15332,0.34662 0.41996,0.61326 0.26663,0.25997 0.62659,0.40662 0.35996,0.13998 0.77991,0.13998 0.39995,0 0.74658,-0.13332 0.34662,-0.13331 0.63326,-0.42661 l 0.31329,0.31329 q -0.30663,0.33996 -0.75324,0.51328 -0.44662,0.17331 -0.95989,0.17331 z m -0.23997,1.4265 q -0.16665,0 -0.30663,-0.04 -0.13332,-0.04 -0.25331,-0.11332 l 0.11332,-0.25331 q 0.1,0.06 0.20665,0.0933 0.11332,0.0333 0.2333,0.0333 0.19998,0 0.30663,-0.0866 0.10666,-0.08 0.10666,-0.22664 0,-0.13332 -0.10666,-0.21998 -0.1,-0.0866 -0.30663,-0.0866 h -0.15331 l 0.15998,-0.6066 h 0.28663 l -0.1,0.38662 q 0.27331,0.02 0.41995,0.16665 0.14665,0.15331 0.14665,0.37329 0,0.26663 -0.2133,0.41995 -0.20665,0.15998 -0.53994,0.15998 z" style="font-family:Montserrat;-inkscape-font-specification:Montserrat" id="path1007"/>
        <path d="m 176.60125,130.22498 2.13309,-4.66613 h 0.48661 l 2.13308,4.66613 h -0.51994 l -1.95977,-4.37949 h 0.19998 l -1.95977,4.37949 z m 0.83991,-1.24653 0.14664,-0.39995 h 2.71302 l 0.14665,0.39995 z m 1.9931,-3.83955 q -0.15332,0 -0.2733,-0.0667 -0.11999,-0.0667 -0.21998,-0.15331 -0.0933,-0.0933 -0.18664,-0.15998 -0.0933,-0.0733 -0.19332,-0.0733 -0.15331,0 -0.24663,0.11332 -0.0867,0.11332 -0.1,0.3133 h -0.28663 q 0.0133,-0.3333 0.17331,-0.53327 0.16665,-0.19998 0.42662,-0.19998 0.15331,0 0.2733,0.0733 0.12665,0.0667 0.21997,0.15999 0.1,0.0866 0.18665,0.15331 0.0933,0.0667 0.19331,0.0667 0.15331,0 0.24664,-0.10665 0.0933,-0.11332 0.1,-0.30663 h 0.28664 q -0.007,0.31996 -0.17332,0.51993 -0.16664,0.19998 -0.42661,0.19998 z" style="font-family:Montserrat;-inkscape-font-specification:Montserrat" id="path1009"/>
        <path d="m 184.10037,130.26497 q -0.5266,0 -0.97988,-0.17331 -0.44662,-0.17998 -0.77991,-0.49994 -0.32663,-0.32663 -0.51328,-0.75325 -0.17998,-0.43328 -0.17998,-0.94656 0,-0.51327 0.17998,-0.93989 0.18665,-0.43328 0.51328,-0.75324 0.33329,-0.32663 0.77991,-0.49994 0.44661,-0.17998 0.97988,-0.17998 0.52661,0 0.97322,0.17998 0.44662,0.17331 0.77324,0.49327 0.3333,0.31996 0.51328,0.75325 0.18664,0.43328 0.18664,0.94655 0,0.51328 -0.18664,0.94656 -0.17998,0.43328 -0.51328,0.75325 -0.32662,0.31996 -0.77324,0.49994 -0.44661,0.17331 -0.97322,0.17331 z m 0,-0.43995 q 0.41995,0 0.77324,-0.13998 0.35996,-0.14665 0.61993,-0.40662 0.26664,-0.26664 0.41329,-0.61326 0.14665,-0.35329 0.14665,-0.77325 0,-0.41995 -0.14665,-0.76657 -0.14665,-0.3533 -0.41329,-0.61327 -0.25997,-0.26663 -0.61993,-0.40661 -0.35329,-0.14665 -0.77324,-0.14665 -0.41995,0 -0.77991,0.14665 -0.35996,0.13998 -0.62659,0.40661 -0.25997,0.25997 -0.41329,0.61327 -0.14665,0.34662 -0.14665,0.76657 0,0.41329 0.14665,0.76658 0.15332,0.35329 0.41329,0.61993 0.26663,0.25997 0.62659,0.40662 0.35996,0.13998 0.77991,0.13998 z" style="font-family:Montserrat;-inkscape-font-specification:Montserrat" id="path1011"/>
        <path d="m 100.09528,138.60242 v -4.23951 h -1.639809 v -0.42661 h 3.772889 v 0.42661 h -1.6398 v 4.23951 z" style="font-family:Montserrat;-inkscape-font-specification:Montserrat" id="path1013"/>
        <path d="m 103.45488,136.02272 h 2.46638 v 0.41995 h -2.46638 z m 0.0533,2.15308 h 2.80634 v 0.42662 h -3.29961 v -4.66612 h 3.19962 v 0.42661 h -2.70635 z" style="font-family:Montserrat;-inkscape-font-specification:Montserrat" id="path1015"/>
        <path d="m 109.48641,138.64242 q -0.52661,0 -0.97322,-0.17332 -0.44662,-0.17998 -0.77325,-0.49994 -0.32662,-0.31996 -0.51327,-0.75324 -0.17998,-0.43329 -0.17998,-0.94656 0,-0.51327 0.17998,-0.94656 0.18665,-0.43328 0.51327,-0.75324 0.3333,-0.31997 0.77991,-0.49328 0.44662,-0.17998 0.97322,-0.17998 0.50661,0 0.95323,0.17332 0.44661,0.16664 0.75324,0.5066 l -0.3133,0.3133 q -0.28663,-0.2933 -0.63325,-0.41995 -0.34663,-0.13332 -0.74658,-0.13332 -0.41996,0 -0.77991,0.14665 -0.35996,0.13998 -0.6266,0.40662 -0.26663,0.25997 -0.41995,0.61326 -0.14665,0.34663 -0.14665,0.76658 0,0.41995 0.14665,0.77324 0.15332,0.34663 0.41995,0.61326 0.26664,0.25997 0.6266,0.40662 0.35995,0.13999 0.77991,0.13999 0.39995,0 0.74658,-0.13332 0.34662,-0.13332 0.63325,-0.42662 l 0.3133,0.3133 q -0.30663,0.33996 -0.75324,0.51327 -0.44662,0.17332 -0.95989,0.17332 z" style="font-family:Montserrat;-inkscape-font-specification:Montserrat" id="path1017"/>
        <path d="m 112.25275,138.60242 v -4.66612 h 0.40662 l 3.21963,4.05286 h -0.21331 v -4.05286 h 0.48661 v 4.66612 h -0.40662 l -3.21296,-4.05286 h 0.21331 v 4.05286 z" style="font-family:Montserrat;-inkscape-font-specification:Montserrat" id="path1019"/>
        <path d="m 119.71188,138.64242 q -0.5266,0 -0.97988,-0.17332 -0.44662,-0.17998 -0.77991,-0.49994 -0.32663,-0.32663 -0.51328,-0.75324 -0.17998,-0.43329 -0.17998,-0.94656 0,-0.51327 0.17998,-0.93989 0.18665,-0.43328 0.51328,-0.75325 0.33329,-0.32663 0.77991,-0.49994 0.44661,-0.17998 0.97988,-0.17998 0.52661,0 0.97322,0.17998 0.44662,0.17331 0.77324,0.49328 0.3333,0.31996 0.51328,0.75324 0.18664,0.43329 0.18664,0.94656 0,0.51327 -0.18664,0.94656 -0.17998,0.43328 -0.51328,0.75324 -0.32662,0.31996 -0.77324,0.49994 -0.44661,0.17332 -0.97322,0.17332 z m 0,-0.43995 q 0.41995,0 0.77324,-0.13999 0.35996,-0.14665 0.61993,-0.40662 0.26664,-0.26663 0.41329,-0.61326 0.14665,-0.35329 0.14665,-0.77324 0,-0.41995 -0.14665,-0.76658 -0.14665,-0.35329 -0.41329,-0.61326 -0.25997,-0.26664 -0.61993,-0.40662 -0.35329,-0.14665 -0.77324,-0.14665 -0.41995,0 -0.77991,0.14665 -0.35996,0.13998 -0.62659,0.40662 -0.25997,0.25997 -0.41329,0.61326 -0.14665,0.34663 -0.14665,0.76658 0,0.41328 0.14665,0.76658 0.15332,0.35329 0.41329,0.61992 0.26663,0.25997 0.62659,0.40662 0.35996,0.13999 0.77991,0.13999 z" style="font-family:Montserrat;-inkscape-font-specification:Montserrat" id="path1021"/>
        <path d="m 123.2648,138.60242 v -4.66612 h 0.49328 v 4.2395 h 2.61303 v 0.42662 z" style="font-family:Montserrat;-inkscape-font-specification:Montserrat" id="path1023"/>
        <path d="m 129.13835,138.64242 q -0.52661,0 -0.97989,-0.17332 -0.44661,-0.17998 -0.77991,-0.49994 -0.32662,-0.32663 -0.51327,-0.75324 -0.17998,-0.43329 -0.17998,-0.94656 0,-0.51327 0.17998,-0.93989 0.18665,-0.43328 0.51327,-0.75325 0.3333,-0.32663 0.77991,-0.49994 0.44662,-0.17998 0.97989,-0.17998 0.5266,0 0.97322,0.17998 0.44661,0.17331 0.77324,0.49328 0.3333,0.31996 0.51328,0.75324 0.18664,0.43329 0.18664,0.94656 0,0.51327 -0.18664,0.94656 -0.17998,0.43328 -0.51328,0.75324 -0.32663,0.31996 -0.77324,0.49994 -0.44662,0.17332 -0.97322,0.17332 z m 0,-0.43995 q 0.41995,0 0.77324,-0.13999 0.35996,-0.14665 0.61993,-0.40662 0.26664,-0.26663 0.41329,-0.61326 0.14665,-0.35329 0.14665,-0.77324 0,-0.41995 -0.14665,-0.76658 -0.14665,-0.35329 -0.41329,-0.61326 -0.25997,-0.26664 -0.61993,-0.40662 -0.35329,-0.14665 -0.77324,-0.14665 -0.41995,0 -0.77991,0.14665 -0.35996,0.13998 -0.62659,0.40662 -0.25997,0.25997 -0.41329,0.61326 -0.14665,0.34663 -0.14665,0.76658 0,0.41328 0.14665,0.76658 0.15332,0.35329 0.41329,0.61992 0.26663,0.25997 0.62659,0.40662 0.35996,0.13999 0.77991,0.13999 z m -0.43328,-4.64613 0.91322,-0.82657 h 0.63326 l -1.07987,0.82657 z" style="font-family:Montserrat;-inkscape-font-specification:Montserrat" id="path1025"/>
        <path d="m 134.7377,138.64242 q -0.53327,0 -0.98655,-0.17332 -0.44661,-0.17998 -0.77991,-0.49994 -0.32663,-0.31996 -0.51327,-0.75324 -0.17998,-0.43329 -0.17998,-0.94656 0,-0.51327 0.17998,-0.94656 0.18664,-0.43328 0.51994,-0.75324 0.33329,-0.31997 0.77991,-0.49328 0.45328,-0.17998 0.98655,-0.17998 0.53327,0 0.97322,0.16665 0.44661,0.16665 0.75991,0.50661 l -0.30663,0.31329 q -0.2933,-0.29329 -0.64659,-0.41995 -0.35329,-0.12665 -0.75991,-0.12665 -0.43329,0 -0.79991,0.14665 -0.35996,0.13998 -0.63326,0.40662 -0.26664,0.25997 -0.41995,0.61326 -0.14665,0.34663 -0.14665,0.76658 0,0.41328 0.14665,0.76658 0.15331,0.35329 0.41995,0.61992 0.2733,0.25997 0.63326,0.40662 0.36662,0.13999 0.79324,0.13999 0.39995,0 0.75325,-0.11999 0.35995,-0.11998 0.65992,-0.40662 l 0.27997,0.37329 q -0.3333,0.2933 -0.77991,0.44662 -0.44662,0.14665 -0.93323,0.14665 z m 1.23986,-0.65326 v -1.7198 h 0.47328 v 1.77979 z" style="font-family:Montserrat;-inkscape-font-specification:Montserrat" id="path1027"/>
        <path d="m 137.84401,138.60242 v -4.66612 h 0.49328 v 4.66612 z" style="font-family:Montserrat;-inkscape-font-specification:Montserrat" id="path1029"/>
        <path d="m 141.88354,138.64242 q -0.5266,0 -0.97322,-0.17332 -0.44661,-0.17998 -0.77324,-0.49994 -0.32663,-0.31996 -0.51328,-0.75324 -0.17997,-0.43329 -0.17997,-0.94656 0,-0.51327 0.17997,-0.94656 0.18665,-0.43328 0.51328,-0.75324 0.33329,-0.31997 0.77991,-0.49328 0.44661,-0.17998 0.97322,-0.17998 0.50661,0 0.95322,0.17332 0.44661,0.16664 0.75325,0.5066 l -0.3133,0.3133 q -0.28663,-0.2933 -0.63326,-0.41995 -0.34663,-0.13332 -0.74658,-0.13332 -0.41995,0 -0.77991,0.14665 -0.35996,0.13998 -0.62659,0.40662 -0.26664,0.25997 -0.41995,0.61326 -0.14665,0.34663 -0.14665,0.76658 0,0.41995 0.14665,0.77324 0.15331,0.34663 0.41995,0.61326 0.26663,0.25997 0.62659,0.40662 0.35996,0.13999 0.77991,0.13999 0.39995,0 0.74658,-0.13332 0.34663,-0.13332 0.63326,-0.42662 l 0.3133,0.3133 q -0.30664,0.33996 -0.75325,0.51327 -0.44661,0.17332 -0.95989,0.17332 z" style="font-family:Montserrat;-inkscape-font-specification:Montserrat" id="path1031"/>
        <path d="m 143.78509,138.60242 2.13308,-4.66612 h 0.48661 l 2.13309,4.66612 h -0.51994 l -1.95977,-4.37949 h 0.19997 l -1.95977,4.37949 z m 0.8399,-1.24652 0.14665,-0.39995 h 2.71302 l 0.14665,0.39995 z" style="font-family:Montserrat;-inkscape-font-specification:Montserrat" id="path1033"/>
        <path d="m 151.49751,136.02272 h 2.46638 v 0.41995 h -2.46638 z m 0.0533,2.15308 h 2.80634 v 0.42662 h -3.29962 v -4.66612 h 3.19963 v 0.42661 h -2.70635 z" style="font-family:Montserrat;-inkscape-font-specification:Montserrat" id="path1035"/>
        <path d="m 155.51705,138.60242 v -4.66612 h 0.40662 l 2.13308,3.63957 h -0.21331 l 2.11309,-3.63957 h 0.40662 v 4.66612 h -0.47328 v -3.92621 h 0.11332 l -1.94644,3.33295 h -0.23331 l -1.95977,-3.33295 h 0.12665 v 3.92621 z" style="font-family:Montserrat;-inkscape-font-specification:Montserrat" id="path1037"/>
        <path d="m 164.91595,138.64242 q -0.51994,0 -0.99989,-0.16665 -0.47327,-0.17331 -0.73324,-0.43995 l 0.19331,-0.37996 q 0.24663,0.23998 0.65992,0.40662 0.41995,0.15999 0.8799,0.15999 0.43995,0 0.71325,-0.10666 0.27997,-0.11332 0.40662,-0.29996 0.13331,-0.18665 0.13331,-0.41329 0,-0.2733 -0.15998,-0.43995 -0.15331,-0.16665 -0.40662,-0.25997 -0.2533,-0.1 -0.55993,-0.17331 -0.30663,-0.0733 -0.61326,-0.15332 -0.30663,-0.0867 -0.5666,-0.22664 -0.25331,-0.13998 -0.41329,-0.36662 -0.15331,-0.23331 -0.15331,-0.6066 0,-0.34662 0.17998,-0.63326 0.18664,-0.2933 0.5666,-0.46661 0.37995,-0.17998 0.97322,-0.17998 0.39328,0 0.77991,0.11332 0.38662,0.10666 0.66658,0.29997 l -0.16664,0.39329 q -0.29997,-0.19998 -0.63993,-0.2933 -0.33329,-0.0933 -0.64659,-0.0933 -0.41995,0 -0.69325,0.11332 -0.2733,0.11332 -0.40662,0.30663 -0.12665,0.18665 -0.12665,0.42662 0,0.2733 0.15331,0.43995 0.15998,0.16665 0.41329,0.25997 0.25997,0.0933 0.5666,0.16665 0.30663,0.0733 0.60659,0.15998 0.30663,0.0867 0.55994,0.22664 0.25997,0.13332 0.41328,0.35996 0.15998,0.22664 0.15998,0.59326 0,0.33996 -0.18664,0.63326 -0.18664,0.28663 -0.57327,0.46661 -0.37995,0.17332 -0.97988,0.17332 z" style="font-family:Montserrat;-inkscape-font-specification:Montserrat" id="path1039"/>
        <path d="m 166.98237,138.60242 2.13308,-4.66612 h 0.48661 l 2.13309,4.66612 h -0.51994 l -1.95977,-4.37949 h 0.19997 l -1.95977,4.37949 z m 0.8399,-1.24652 0.14665,-0.39995 h 2.71302 l 0.14665,0.39995 z" style="font-family:Montserrat;-inkscape-font-specification:Montserrat" id="path1041"/>
        <path d="m 174.28819,138.64242 q -0.89323,0 -1.4065,-0.51328 -0.51328,-0.51327 -0.51328,-1.51982 v -2.67302 h 0.49328 v 2.65302 q 0,0.82657 0.37329,1.21986 0.37329,0.39329 1.05321,0.39329 0.68658,0 1.05987,-0.39329 0.37329,-0.39329 0.37329,-1.21986 v -2.65302 h 0.47995 v 2.67302 q 0,1.00655 -0.51327,1.51982 -0.50661,0.51328 -1.39984,0.51328 z m -0.43328,-5.08608 0.91322,-0.82657 h 0.63326 l -1.07987,0.82657 z" style="font-family:Montserrat;-inkscape-font-specification:Montserrat" id="path1043"/>
        <path d="m 177.68779,138.60242 v -4.66612 h 1.89978 q 0.74658,0 1.30651,0.29996 0.5666,0.2933 0.8799,0.81991 0.3133,0.5266 0.3133,1.21319 0,0.68659 -0.3133,1.21319 -0.3133,0.52661 -0.8799,0.82657 -0.55993,0.2933 -1.30651,0.2933 z m 0.49327,-0.42662 h 1.37984 q 0.61993,0 1.07321,-0.23997 0.45995,-0.24664 0.71325,-0.67325 0.25331,-0.43329 0.25331,-0.99322 0,-0.5666 -0.25331,-0.99322 -0.2533,-0.42662 -0.71325,-0.66659 -0.45328,-0.24664 -1.07321,-0.24664 h -1.37984 z" style="font-family:Montserrat;-inkscape-font-specification:Montserrat" id="path1045"/>
        <path d="m 183.63376,136.02272 h 2.46638 v 0.41995 h -2.46638 z m 0.0533,2.15308 h 2.80634 v 0.42662 h -3.29961 v -4.66612 h 3.19962 v 0.42661 h -2.70635 z" style="font-family:Montserrat;-inkscape-font-specification:Montserrat" id="path1047"/>
      </g>
    </g>
  </g>
</svg>